<svg xmlns="http://www.w3.org/2000/svg" height="800" width="600" version="1.1" xmlns:xlink="http://www.w3.org/1999/xlink">
<!-- 
    clear-day ; clear-night ; fog ; hail ; partly-cloudy-day ; partly-cloudy-night ; rain ; sleet ; snow ; thunderstorms ; tornado ; wind  
-->
<defs> 
<path id="clear-day" 
d="m16.001 1045.4c-0.554 0-1 0.4459-1 1v1c0 0.554 0.446 1 1 1s1-0.446 1-1v-1c0-0.5541-0.446-1-1-1zm7.0703-2.9297c-0.25562 0-0.51116 0.097-0.70703 0.2929-0.39174 0.3917-0.39174 1.0224 0 1.414l0.70703 0.7072c0.39174 0.3916 1.0223 0.3916 1.4141 0 0.39174-0.3919 0.39174-1.0224 0-1.4141l-0.70703-0.7071c-0.19587-0.1958-0.45141-0.2929-0.70703-0.2929zm-14.141 0c-0.25562 0-0.51116 0.097-0.70703 0.2929l-0.70703 0.7071c-0.39174 0.3918-0.39174 1.0223 0 1.4141 0.39173 0.3916 1.0223 0.3916 1.4141 0l0.70703-0.7072c0.39174-0.3916 0.39174-1.0223 0-1.414-0.19587-0.1958-0.45141-0.2929-0.70703-0.2929zm17.07-7.0703c-0.554 0-1 0.4459-1 1 0 0.554 0.446 1 1 1h1c0.554 0 1-0.446 1-1 0-0.5541-0.446-1-1-1h-1zm-21 0c-0.554 0-1 0.4459-1 1 0 0.554 0.446 1 1 1h1c0.554 0 1-0.446 1-1 0-0.5541-0.446-1-1-1h-1zm11-7a8 8 0 0 0 -8 8 8 8 0 0 0 8 8 8 8 0 0 0 8 -8 8 8 0 0 0 -8 -8zm0 2a6 6 0 0 1 6 6 6 6 0 0 1 -6 6 6 6 0 0 1 -6 -6 6 6 0 0 1 6 -6zm7.7773-2.7793c-0.25561 0-0.51116 0.099-0.70703 0.2949l-0.70703 0.7071c-0.39174 0.3917-0.39174 1.0223 0 1.414 0.39174 0.3918 1.0223 0.3918 1.4141 0l0.70703-0.707c0.39174-0.3917 0.39174-1.0223 0-1.4141-0.19586-0.1958-0.45141-0.2949-0.70703-0.2949zm-15.555 0c-0.25562 0-0.51117 0.099-0.70703 0.2949-0.39174 0.3918-0.39174 1.0224 0 1.4141l0.70703 0.707c0.39173 0.3918 1.0223 0.3918 1.4141 0 0.39174-0.3917 0.39174-1.0223 0-1.414l-0.70703-0.7071c-0.19587-0.1958-0.45142-0.2949-0.70703-0.2949zm7.7773-3.2207c-0.554 0-1 0.4459-1 1v1c0 0.554 0.446 1 1 1s1-0.446 1-1v-1c0-0.5541-0.446-1-1-1z" transform="translate(0 -1020.4)"/>
<path id="clear-night" 
d="m16.001 1045.4c-0.554 0-1 0.4459-1 1v1c0 0.554 0.446 1 1 1s1-0.446 1-1v-1c0-0.5541-0.446-1-1-1zm7.0703-2.9297c-0.25562 0-0.51116 0.097-0.70703 0.2929-0.39174 0.3917-0.39174 1.0224 0 1.414l0.70703 0.7072c0.39174 0.3916 1.0223 0.3916 1.4141 0 0.39174-0.3919 0.39174-1.0224 0-1.4141l-0.70703-0.7071c-0.19587-0.1958-0.45141-0.2929-0.70703-0.2929zm-14.141 0c-0.25562 0-0.51116 0.097-0.70703 0.2929l-0.70703 0.7071c-0.39174 0.3918-0.39174 1.0223 0 1.4141 0.39173 0.3916 1.0223 0.3916 1.4141 0l0.70703-0.7072c0.39174-0.3916 0.39174-1.0223 0-1.414-0.19587-0.1958-0.45141-0.2929-0.70703-0.2929zm17.07-7.0703c-0.554 0-1 0.4459-1 1 0 0.554 0.446 1 1 1h1c0.554 0 1-0.446 1-1 0-0.5541-0.446-1-1-1h-1zm-21 0c-0.554 0-1 0.4459-1 1 0 0.554 0.446 1 1 1h1c0.554 0 1-0.446 1-1 0-0.5541-0.446-1-1-1h-1zm11-7a8 8 0 0 0 -8 8 8 8 0 0 0 8 8 8 8 0 0 0 8 -8 8 8 0 0 0 -8 -8zm0 2a6 6 0 0 1 6 6 6 6 0 0 1 -6 6 6 6 0 0 1 -6 -6 6 6 0 0 1 6 -6zm7.7773-2.7793c-0.25561 0-0.51116 0.099-0.70703 0.2949l-0.70703 0.7071c-0.39174 0.3917-0.39174 1.0223 0 1.414 0.39174 0.3918 1.0223 0.3918 1.4141 0l0.70703-0.707c0.39174-0.3917 0.39174-1.0223 0-1.4141-0.19586-0.1958-0.45141-0.2949-0.70703-0.2949zm-15.555 0c-0.25562 0-0.51117 0.099-0.70703 0.2949-0.39174 0.3918-0.39174 1.0224 0 1.4141l0.70703 0.707c0.39173 0.3918 1.0223 0.3918 1.4141 0 0.39174-0.3917 0.39174-1.0223 0-1.414l-0.70703-0.7071c-0.19587-0.1958-0.45142-0.2949-0.70703-0.2949zm7.7773-3.2207c-0.554 0-1 0.4459-1 1v1c0 0.554 0.446 1 1 1s1-0.446 1-1v-1c0-0.5541-0.446-1-1-1z" transform="translate(0 -1020.4)"/>
<path id="fog"
d="m 5.0002,1029.4 c -0.554,0 -1,0.446 -1,1 0,0.554 0.446,1 1,1 l 22,0 c 0.554,0 1,-0.446 1,-1 0,-0.554 -0.446,-1 -1,-1 l -22,0 z m 0,4 c -0.554,0 -1,0.446 -1,1 0,0.554 0.446,1 1,1 l 22,0 c 0.554,0 1,-0.446 1,-1 0,-0.554 -0.446,-1 -1,-1 l -22,0 z m 0,4 c -0.554,0 -1,0.446 -1,1 0,0.554 0.446,1 1,1 l 22,0 c 0.554,0 1,-0.446 1,-1 0,-0.554 -0.446,-1 -1,-1 l -22,0 z m 0,4 c -0.554,0 -1,0.446 -1,1 0,0.554 0.446,1 1,1 l 22,0 c 0.554,0 1,-0.446 1,-1 0,-0.554 -0.446,-1 -1,-1 l -22,0 z" transform="translate(0 -1021.4)"/>
<path id="hail" 
d="m15.001 1027.4c-3.2637 0-6.1985 1.9876-7.416 5.0156-3.1442 0.2186-5.5834 2.8326-5.584 5.9844 0 3.1616 2.4483 5.7416 5.5508 5.9727l1.1387-1.9727h-0.68945c-2.2091 0-4-1.7908-4-4 0-2.2091 1.7909-4 4-4 0.36119 0 0.72057 0.051 1.0684 0.1485 0.4232-2.9517 2.9498-5.1447 5.9316-5.1485 2.8668 0 5.3313 2.0325 5.8828 4.8457 0.76276-0.5481 1.6779-0.8438 2.6172-0.8457 2.4853 0 4.5 2.0147 4.5 4.5s-2.0147 4.5-4.5 4.5h-0.5l-1.1523 2h1.6523c3.5898 0 6.5-2.9101 6.5-6.5 0-3.5898-2.9102-6.5-6.5-6.5-0.49867 0-0.99543 0.062-1.4805 0.1777-1.399-2.5722-4.0915-4.1746-7.0195-4.1777zm-4 22a1 1 0 0 0 -1 1 1 1 0 0 0 1 1 1 1 0 0 0 1 -1 1 1 0 0 0 -1 -1zm13-2a1 1 0 0 0 -1 1 1 1 0 0 0 1 1 1 1 0 0 0 1 -1 1 1 0 0 0 -1 -1zm-23-2a1 1 0 0 0 -1 1 1 1 0 0 0 1 1 1 1 0 0 0 1 -1 1 1 0 0 0 -1 -1zm20.008-6a1.0001 1.0001 0 0 0 -0.88086 0.5117l-5.7578 9.9766a1.0001 1.0001 0 0 0 1.3809 1.3555c1.702-1.0235 2.1758-2.1083 5.1641-1.8477a1.0001 1.0001 0 1 0 0.17188 -1.9922c-1.3441-0.1172-2.3331 0.088-3.1934 0.3789l3.9668-6.8711a1.0001 1.0001 0 0 0 -0.85157 -1.5117zm-4 0a1.0001 1.0001 0 0 0 -0.88086 0.5117l-4.0352 6.9883a1.0002 1.0002 0 1 0 1.7324 1l4.0352-6.9883a1.0001 1.0001 0 0 0 -0.85156 -1.5117zm-3.9922-0.012a1.0001 1.0001 0 0 0 -0.88085 0.5117l-5.0137 8.6817c-0.71841-0.9428-1.5539-1.8319-2.8848-2.1543a1.001 1.001 0 1 0 -0.47266 1.9453c1.0118 0.2451 1.7576 1.2552 2.6367 2.5722a1.0001 1.0001 0 0 0 1.6992 -0.057l5.7656-9.9883a1.0001 1.0001 0 0 0 -0.84962 -1.5117z" transform="translate(0 -1020.4)"/>
<path id="partly-cloudy-day" 
d="m12 1020.4c-0.554 0-1 0.446-1 1v1c0 0.554 0.446 1 1 1s1-0.446 1-1v-1c0-0.554-0.446-1-1-1zm-7.7773 3.2207c-0.25562 0-0.51117 0.099-0.70703 0.2949-0.39174 0.3918-0.39174 1.0224 0 1.4141l0.70703 0.707c0.39173 0.3918 1.0223 0.3918 1.4141 0 0.39174-0.3917 0.39174-1.0223 0-1.414l-0.70703-0.7071c-0.19587-0.1958-0.45142-0.2949-0.70703-0.2949zm15.555 0c-0.25561 0-0.51116 0.099-0.70703 0.2949l-0.70703 0.7071c-0.39174 0.3917-0.39174 1.0223 0 1.414 0.39174 0.3918 1.0223 0.3918 1.4141 0l0.70704-0.707c0.39173-0.3917 0.39173-1.0223 0-1.4141-0.19587-0.1958-0.45142-0.2949-0.70704-0.2949zm-7.7773 0.7793c-4.4183 0-8 3.5817-8 8 0 1.5899 0.4699 3.0672 1.2695 4.3125-0.79632 1.0202-1.2693 2.3012-1.2695 3.6875 0 3.3137 2.6863 6 6 6h15.5c3.5898 0 6.5-2.9101 6.5-6.5 0-3.5898-2.9102-6.5-6.5-6.5-0.49867 0-0.99543 0.062-1.4805 0.1777-0.97236-1.7878-2.5764-3.091-4.4434-3.7304-1.0664-3.1648-4.0518-5.4473-7.5762-5.4473zm0 2c2.2253 0 4.1633 1.2143 5.1992 3.0137-0.067 0-0.13195-0.014-0.19922-0.014-3.2637 0-6.1985 1.9875-7.416 5.0156-1.0334 0.072-1.9871 0.4063-2.8066 0.9297-0.49216-0.8707-0.77734-1.8738-0.77734-2.9453 0-3.3137 2.6863-6 6-6zm-11 5c-0.554 0-1 0.446-1 1s0.446 1 1 1h1c0.554 0 1-0.446 1-1s-0.446-1-1-1zm16 0c2.8668 0 5.3313 2.0325 5.8828 4.8457 0.76276-0.5481 1.6779-0.8438 2.6172-0.8457 2.4853 0 4.5 2.0147 4.5 4.5s-2.0147 4.5-4.5 4.5h-15.5c-2.2091 0-4-1.7909-4-4s1.7909-4 4-4c0.36119 0 0.72057 0.051 1.0684 0.1484 0.4232-2.9516 2.9498-5.1446 5.9316-5.1484z" transform="translate(0 -1020.4)"/>
<path id="cloudy" 
d="m18 1025.4c-3.0799 0-5.7489 1.744-7.0859 4.295-2.3808 0.6468-4.3803 2.3585-5.3301 4.7207-3.1442 0.2185-5.5834 2.8326-5.584 5.9843 0 3.3138 2.6863 6 6 6h15.5c3.1818 0 5.8239-2.2873 6.3848-5.3066 2.3897-0.7906 4.1152-3.0385 4.1152-5.6934 0-3.3137-2.6863-6-6-6-0.34255 0-0.68429 0.033-1.0215 0.094-1.4139-2.5269-4.0829-4.0927-6.9785-4.0937zm0 2c2.7877 0 5.2063 1.9254 5.8379 4.6407 0.64435-0.4165 1.3949-0.6386 2.1621-0.6407 2.2091 0 4 1.7909 4 4 0 1.5118-0.84848 2.8121-2.0859 3.4922-0.48535-3.11-3.1679-5.4922-6.4141-5.4922-0.49867 0-0.99543 0.062-1.4805 0.1778-1.3174-2.4222-3.7857-3.966-6.5137-4.1426 1.0994-1.2449 2.7027-2.0352 4.4941-2.0352zm-5 4c2.8668 0 5.3313 2.0326 5.8828 4.8458 0.76276-0.5482 1.6779-0.8439 2.6172-0.8458 2.4853 0 4.5 2.0148 4.5 4.5 0 2.4853-2.0147 4.5-4.5 4.5h-15.5c-2.2091 0-4-1.7908-4-4 0-2.2091 1.7909-4 4-4 0.36119 0.001 0.72057 0.051 1.0684 0.1485 0.4232-2.9517 2.9498-5.1447 5.9316-5.1485z" transform="translate(0 -1020.4)"/>
<path id="partly-cloudy-night" 
d="m10.748 1022.4c0.1649 0.6414 0.24953 1.3007 0.25195 1.9629 0 4.4183-3.5817 8-8 8-0.24979-0.0007-0.49941-0.013-0.74805-0.037 0.45224 1.7708 1.4972 3.3334 2.9609 4.4277-0.76071 1.0074-1.2126 2.2576-1.2129 3.6094 0 3.3137 2.6863 6 6 6h15.5c3.5898 0 6.5-2.9101 6.5-6.5 0-3.5898-2.9102-6.5-6.5-6.5-0.49867 0-0.99543 0.062-1.4805 0.1777-1.248-2.2947-3.5282-3.8092-6.084-4.1132-0.44132-3.7431-3.4354-6.6705-7.1875-7.0274zm2.0996 2.709c1.6249 0.8766 2.7857 2.4576 3.0762 4.3359-2.8188 0.3853-5.2582 2.2436-6.3398 4.9336-1.0593 0.074-2.0342 0.4243-2.8672 0.9707-0.57342-0.3884-1.0794-0.8749-1.4961-1.4375 4.1598-0.9832 7.2836-4.4382 7.627-8.8027zm4.1523 6.2539c2.8668 0 5.3313 2.0325 5.8828 4.8457 0.76276-0.5481 1.6779-0.8438 2.6172-0.8457 2.4853 0 4.5 2.0147 4.5 4.5s-2.0147 4.5-4.5 4.5h-15.5c-2.2091 0-4-1.7909-4-4s1.7909-4 4-4c0.36119 0 0.72057 0.051 1.0684 0.1484 0.4232-2.9516 2.9498-5.1446 5.9316-5.1484z" transform="translate(0 -1020.4)"/>
<path id="rain" 
d="m15 1027.4c-3.2637 0-6.1985 1.9876-7.416 5.0156-3.1442 0.2186-5.5834 2.8326-5.584 5.9844 0 3.1615 2.4483 5.7416 5.5508 5.9727l1.1387-1.9727h-0.68945c-2.2091 0-4-1.7909-4-4s1.7909-4 4-4c0.36119 0 0.72057 0.051 1.0684 0.1484 0.4232-2.9516 2.9498-5.1446 5.9316-5.1484 2.8668 0 5.3313 2.0325 5.8828 4.8457 0.76276-0.5481 1.6779-0.8438 2.6172-0.8457 2.4853 0 4.5 2.0147 4.5 4.5s-2.0147 4.5-4.5 4.5h-0.5l-1.1523 2h1.6523c3.5898 0 6.5-2.9101 6.5-6.5 0-3.5898-2.9102-6.5-6.5-6.5-0.49867 0-0.99543 0.062-1.4805 0.1777-1.399-2.5722-4.0915-4.1747-7.0195-4.1777zm-2.5009 13.135c0.47978 0.277 0.64303 0.8863 0.36603 1.3661l-1 1.732c-0.277 0.4798-0.88625 0.643-1.366 0.366-0.47977-0.277-0.64302-0.8862-0.36602-1.366l1-1.732c0.277-0.4798 0.88625-0.6431 1.366-0.3661zm4 0c0.47978 0.277 0.64303 0.8863 0.36603 1.3661l-1 1.732c-0.277 0.4798-0.88625 0.6431-1.366 0.3661-0.47978-0.277-0.64302-0.8863-0.36602-1.3661l1-1.732c0.277-0.4798 0.88624-0.6431 1.366-0.3661zm4 0c0.47978 0.277 0.64303 0.8863 0.36603 1.3661l-1 1.732c-0.277 0.4798-0.88625 0.6431-1.366 0.3661-0.47978-0.277-0.64303-0.8863-0.36603-1.3661l1-1.732c0.277-0.4798 0.88625-0.6431 1.366-0.3661zm-7.9983 5.2663c0.47978 0.277 0.64303 0.8862 0.36603 1.366l-1 1.732c-0.277 0.4798-0.88625 0.6431-1.366 0.3661-0.47978-0.277-0.64302-0.8863-0.36602-1.3661l1-1.732c0.277-0.4798 0.88624-0.643 1.366-0.366zm4 0c0.47978 0.277 0.64303 0.8862 0.36603 1.366l-1 1.732c-0.277 0.4798-0.88625 0.6431-1.366 0.3661-0.47978-0.277-0.64302-0.8863-0.36602-1.3661l1-1.732c0.277-0.4798 0.88624-0.643 1.366-0.366z" transform="translate(0 -1020.4)"/>
<path id="sleet" 
d="m15.001 1027.4c-3.2637 0-6.1985 1.9876-7.416 5.0156-3.1442 0.2186-5.5834 2.8326-5.584 5.9844 0 3.1616 2.4483 5.7416 5.5508 5.9727l1.1387-1.9727h-0.68945c-2.2091 0-4-1.7908-4-4 0-2.2091 1.7909-4 4-4 0.36119 0 0.72057 0.051 1.0684 0.1485 0.4232-2.9517 2.9498-5.1447 5.9316-5.1485 2.8668 0 5.3313 2.0325 5.8828 4.8457 0.76276-0.5481 1.6779-0.8438 2.6172-0.8457 2.4853 0 4.5 2.0147 4.5 4.5s-2.0147 4.5-4.5 4.5h-0.5l-1.1523 2h1.6523c3.5898 0 6.5-2.9101 6.5-6.5 0-3.5898-2.9102-6.5-6.5-6.5-0.49867 0-0.99543 0.062-1.4805 0.1777-1.399-2.5722-4.0915-4.1746-7.0195-4.1777zm-4 22a1 1 0 0 0 -1 1 1 1 0 0 0 1 1 1 1 0 0 0 1 -1 1 1 0 0 0 -1 -1zm13-2a1 1 0 0 0 -1 1 1 1 0 0 0 1 1 1 1 0 0 0 1 -1 1 1 0 0 0 -1 -1zm-23-2a1 1 0 0 0 -1 1 1 1 0 0 0 1 1 1 1 0 0 0 1 -1 1 1 0 0 0 -1 -1zm20.008-6a1.0001 1.0001 0 0 0 -0.88086 0.5117l-5.7578 9.9766a1.0001 1.0001 0 0 0 1.3809 1.3555c1.702-1.0235 2.1758-2.1083 5.1641-1.8477a1.0001 1.0001 0 1 0 0.17188 -1.9922c-1.3441-0.1172-2.3331 0.088-3.1934 0.3789l3.9668-6.8711a1.0001 1.0001 0 0 0 -0.85157 -1.5117zm-4 0a1.0001 1.0001 0 0 0 -0.88086 0.5117l-4.0352 6.9883a1.0002 1.0002 0 1 0 1.7324 1l4.0352-6.9883a1.0001 1.0001 0 0 0 -0.85156 -1.5117zm-3.9922-0.012a1.0001 1.0001 0 0 0 -0.88085 0.5117l-5.0137 8.6817c-0.71841-0.9428-1.5539-1.8319-2.8848-2.1543a1.001 1.001 0 1 0 -0.47266 1.9453c1.0118 0.2451 1.7576 1.2552 2.6367 2.5722a1.0001 1.0001 0 0 0 1.6992 -0.057l5.7656-9.9883a1.0001 1.0001 0 0 0 -0.84962 -1.5117z" transform="translate(0 -1020.4)"/>
<path id="snow" 
d="m16.5 1044.4c-0.277 0-0.5 0.446-0.5 1v0.293l-0.20703-0.2071c-0.39174-0.3917-0.86468-0.5493-1.0606-0.3535-0.19587 0.1959-0.0382 0.6688 0.35352 1.0606l0.20703 0.207h-0.29297c-0.554 0-1 0.223-1 0.5s0.446 0.5 1 0.5h0.29297l-0.20703 0.207c-0.39174 0.3918-0.54939 0.8647-0.35352 1.0606s0.66881 0.038 1.0606-0.3535l0.20703-0.2071v0.293c0 0.554 0.223 1 0.5 1s0.5-0.446 0.5-1v-0.293l0.20703 0.2071c0.39174 0.3917 0.86468 0.5494 1.0606 0.3535 0.19587-0.1959 0.0382-0.6688-0.35352-1.0606l-0.20703-0.207h0.29297c0.554 0 1-0.223 1-0.5s-0.446-0.5-1-0.5h-0.29297l0.20703-0.207c0.39174-0.3918 0.54939-0.8647 0.35352-1.0606-0.19587-0.1958-0.66881-0.038-1.0606 0.3535l-0.20703 0.2071v-0.293c0-0.554-0.223-1-0.5-1zm-6 0c-0.277 0-0.5 0.446-0.5 1v0.293l-0.20703-0.2071c-0.39174-0.3917-0.86468-0.5493-1.0606-0.3535-0.19587 0.1959-0.0382 0.6688 0.35352 1.0606l0.20703 0.207h-0.29297c-0.554 0-1 0.223-1 0.5s0.446 0.5 1 0.5h0.29297l-0.20703 0.207c-0.39174 0.3918-0.54939 0.8647-0.35352 1.0606s0.66881 0.038 1.0606-0.3535l0.20703-0.2071v0.293c0 0.554 0.223 1 0.5 1s0.5-0.446 0.5-1v-0.293l0.20703 0.2071c0.39174 0.3917 0.86468 0.5494 1.0606 0.3535 0.19587-0.1959 0.0382-0.6688-0.35352-1.0606l-0.20703-0.207h0.29297c0.554 0 1-0.223 1-0.5s-0.446-0.5-1-0.5h-0.29297l0.20703-0.207c0.39174-0.3918 0.54939-0.8647 0.35352-1.0606-0.19587-0.1958-0.66881-0.038-1.0606 0.3535l-0.20703 0.2071v-0.293c0-0.554-0.223-1-0.5-1zm8-5c-0.277 0-0.5 0.446-0.5 1v0.293l-0.20703-0.2071c-0.39174-0.3917-0.86468-0.5493-1.0606-0.3535-0.19587 0.1959-0.0382 0.6688 0.35352 1.0606l0.20703 0.207h-0.29297c-0.554 0-1 0.223-1 0.5s0.446 0.5 1 0.5h0.29297l-0.20703 0.207c-0.39174 0.3918-0.54939 0.8647-0.35352 1.0606s0.66881 0.038 1.0606-0.3535l0.20703-0.2071v0.293c0 0.554 0.223 1 0.5 1s0.5-0.446 0.5-1v-0.293l0.20703 0.2071c0.39174 0.3917 0.86468 0.5494 1.0606 0.3535 0.19587-0.1959 0.0382-0.6688-0.35352-1.0606l-0.20703-0.207h0.29297c0.554 0 1-0.223 1-0.5s-0.446-0.5-1-0.5h-0.29297l0.20703-0.207c0.39174-0.3918 0.54939-0.8647 0.35352-1.0606-0.19587-0.1958-0.66881-0.038-1.0606 0.3535l-0.20703 0.2071v-0.293c0-0.554-0.223-1-0.5-1zm-6 0c-0.277 0-0.5 0.446-0.5 1v0.293l-0.20703-0.2071c-0.39174-0.3917-0.86468-0.5493-1.0606-0.3535-0.19587 0.1959-0.0382 0.6688 0.35352 1.0606l0.20703 0.207h-0.29297c-0.554 0-1 0.223-1 0.5s0.446 0.5 1 0.5h0.29297l-0.20703 0.207c-0.39174 0.3918-0.54939 0.8647-0.35352 1.0606s0.66881 0.038 1.0606-0.3535l0.20703-0.2071v0.293c0 0.554 0.223 1 0.5 1s0.5-0.446 0.5-1v-0.293l0.20703 0.2071c0.39174 0.3917 0.86468 0.5494 1.0606 0.3535 0.19587-0.1959 0.0382-0.6688-0.35352-1.0606l-0.20703-0.207h0.29297c0.554 0 1-0.223 1-0.5s-0.446-0.5-1-0.5h-0.29297l0.20703-0.207c0.39174-0.3918 0.54939-0.8647 0.35352-1.0606-0.19587-0.1958-0.66881-0.038-1.0606 0.3535l-0.20703 0.2071v-0.293c0-0.554-0.223-1-0.5-1zm2.5-12c-3.2637 0-6.1985 1.9876-7.416 5.0156-3.1442 0.2186-5.5834 2.8326-5.584 5.9844 0 3.1615 2.4483 5.7416 5.5508 5.9727l1.1387-1.9727h-0.68945c-2.2091 0-4-1.7909-4-4s1.7909-4 4-4c0.36119 0.001 0.72057 0.051 1.0684 0.1484 0.4232-2.9516 2.9498-5.1446 5.9316-5.1484 2.8668 0 5.3313 2.0325 5.8828 4.8457 0.76276-0.5481 1.6779-0.8438 2.6172-0.8457 2.4853 0 4.5 2.0147 4.5 4.5s-2.0147 4.5-4.5 4.5h-0.5l-1.1523 2h1.6523c3.5898 0 6.5-2.9101 6.5-6.5 0-3.5898-2.9102-6.5-6.5-6.5-0.49867 0-0.99543 0.062-1.4805 0.1777-1.399-2.5722-4.0915-4.1747-7.0195-4.1777z" transform="translate(0 -1020.4)"/>
<path id="thunderstorms" 
d="m15 1027.4c-3.2637 0-6.1985 1.9876-7.416 5.0156-3.1442 0.2186-5.5834 2.8326-5.584 5.9844 0 3.1615 2.4483 5.7416 5.5508 5.9727l1.1387-1.9727h-0.68945c-2.2091 0-4-1.7909-4-4s1.7909-4 4-4c0.36119 0.001 0.72057 0.051 1.0684 0.1484 0.4232-2.9516 2.9498-5.1446 5.9316-5.1484 2.8668 0 5.3313 2.0325 5.8828 4.8457 0.76276-0.5481 1.6779-0.8438 2.6172-0.8457 2.4853 0 4.5 2.0147 4.5 4.5s-2.0147 4.5-4.5 4.5h-0.5l-1.1523 2h1.6523c3.5898 0 6.5-2.9101 6.5-6.5 0-3.5898-2.9102-6.5-6.5-6.5-0.49867 0-0.99543 0.062-1.4805 0.1777-1.399-2.5722-4.0915-4.1747-7.0195-4.1777zm-1 11-2 6h2l-1 5 5-7h-3l2-4z" transform="translate(0 -1020.4)"/>
<path id="tornado" 
d="m 13,1045.4 c -0.554,0 -1,0.446 -1,1 0,0.554 0.446,1 1,1 l 2,0 c 0.554,0 1,-0.446 1,-1 0,-0.554 -0.446,-1 -1,-1 l -2,0 z m 1.834,-4 c -0.46167,0 -0.83398,0.446 -0.83398,1 0,0.554 0.37231,1 0.83398,1 l 3.332,0 c 0.46167,0 0.83398,-0.446 0.83398,-1 0,-0.554 -0.37231,-1 -0.83398,-1 l -3.332,0 z m 0.94336,-4 c -0.43089,0 -0.77734,0.446 -0.77734,1 0,0.554 0.34645,1 0.77734,1 l 5.4453,0 c 0.43089,0 0.77734,-0.446 0.77734,-1 0,-0.554 -0.34645,-1 -0.77734,-1 l -5.4453,0 z m -0.95703,-4 c -0.46893,0 -0.8457,0.446 -0.8457,1 0,0.554 0.37677,1 0.8457,1 l 9.334,0 c 0.46893,0 0.8457,-0.446 0.8457,-1 0,-0.554 -0.37677,-1 -0.8457,-1 l -9.334,0 z m -5.031,-4 c -0.43737,0 -0.78929,0.446 -0.78929,1 0,0.554 0.35192,1 0.78929,1 l 13.421,0 c 0.43737,0 0.78929,-0.446 0.78929,-1 0,-0.554 -0.35192,-1 -0.78929,-1 l -13.421,0 z m -4.8726,-4 c -0.50785,0 -0.91667,0.446 -0.91667,1 0,0.554 0.40882,1 0.91667,1 l 20.167,0 c 0.50785,0 0.91667,-0.446 0.91667,-1 0,-0.554 -0.40882,-1 -0.91667,-1 l -20.167,0 z" transform="translate(0 -1021.4)"/>
<path id="wind" d=
"m24.608 1028.4c-0.94188-0.027-1.8841 0.3235-2.582 1.0215-0.98167 0.9425 0.47155 2.3957 1.4141 1.414 0.48348-0.4834 1.2184-0.5801 1.8106-0.2382 0.59214 0.3418 0.87618 1.027 0.69922 1.6875-0.17697 0.6604-0.76548 1.1113-1.4492 1.1113h-19.5c-0.55228 0-1 0.4477-1 1s0.44772 0.9999 1 1h19.5c1.5793 0 2.9721-1.0683 3.3809-2.5938 0.40875-1.5254-0.26316-3.1478-1.6309-3.9375-0.51289-0.2961-1.0774-0.4484-1.6426-0.4648zm-19.608 8.9995c-0.55228 0-1 0.4478-1 1 0 0.5523 0.44772 1 1 1h11.5c0.68374 0 1.2722 0.4509 1.4492 1.1114 0.17696 0.6604-0.10708 1.3456-0.69922 1.6875-0.59214 0.3418-1.3271 0.2452-1.8106-0.2383-0.94251-0.9817-2.3957 0.4715-1.4141 1.414 1.1167 1.1168 2.8569 1.3463 4.2246 0.5567 1.3677-0.7897 2.0396-2.412 1.6309-3.9375-0.40875-1.5254-1.8016-2.5938-3.3809-2.5938z" transform="translate(0 -1020.4)"/>
<path id="04d" d="M33.469,15v11.938h3.125v-11.938h-3.125zm-13.813,3.406l-2.656,1.656,6.312,10.126,2.657-1.657-6.313-10.125zm30.938,0.313l-4.719,8.531c-2.986,0.663-5.776,1.865-8.25,3.5-0.847-0.119-1.715-0.188-2.594-0.188-10.675,0-19.312,8.695-19.312,19.407,0,1.947,0.305,3.825,0.843,5.593-0.978,1.235-1.775,2.642-2.312,4.157l-0.688-1.063-10.062,6.344,0.3438,0.562c-2.3766,2.331-3.8438,5.561-3.8438,9.126,0,3.52,1.6295,6.439,4.0938,8.093,2.4642,1.654,5.5401,2.219,8.7182,2.219h20.469,3.125,9.125,17.844,16.375c11.15,0,20.25-9.098,20.25-20.25s-9.099-20.219-20.25-20.219c-1.607,0-3.124,0.264-4.594,0.625-2.866-10.607-12.411-18.5-23.906-18.5-0.499,0-0.977,0.034-1.469,0.063l3.563-6.469-2.75-1.531zm-44.532,11.375l-1.5313,2.75,10.407,5.781,1.5-2.75-10.376-5.781zm45.188,1.344c10.088,0,18.319,7.377,19.844,17.031l0.468,2.906,2.75-1.031c1.734-0.658,3.538-1.063,5.438-1.063,8.58,0,15.5,6.89,15.5,15.469s-6.921,15.5-15.5,15.5h-16.375-17.844-32.719c-2.576,0-4.757-0.53-6.062-1.406s-2-1.922-2-4.156c0-4.463,3.5946-8.032,8.062-8.032,0.74,0,1.486,0.128,2.313,0.375l3.063,0.938v-3.219c0-0.288,0.007-0.458,0-0.5,0.133-5.302,4.412-9.5,9.75-9.5-0.078,0,0.118,0.026,0.656,0.062l2.656,0.188-0.125-2.656c-0.029-0.651-0.063-0.871-0.063-0.719,0-11.178,9.002-20.187,20.188-20.187zm-51.25,16.062v3.125h11.906v-3.125h-11.906z"/>
<path id="04n" d="M33.469,15v11.938h3.125v-11.938h-3.125zm-13.813,3.406l-2.656,1.656,6.312,10.126,2.657-1.657-6.313-10.125zm30.938,0.313l-4.719,8.531c-2.986,0.663-5.776,1.865-8.25,3.5-0.847-0.119-1.715-0.188-2.594-0.188-10.675,0-19.312,8.695-19.312,19.407,0,1.947,0.305,3.825,0.843,5.593-0.978,1.235-1.775,2.642-2.312,4.157l-0.688-1.063-10.062,6.344,0.3438,0.562c-2.3766,2.331-3.8438,5.561-3.8438,9.126,0,3.52,1.6295,6.439,4.0938,8.093,2.4642,1.654,5.5401,2.219,8.7182,2.219h20.469,3.125,9.125,17.844,16.375c11.15,0,20.25-9.098,20.25-20.25s-9.099-20.219-20.25-20.219c-1.607,0-3.124,0.264-4.594,0.625-2.866-10.607-12.411-18.5-23.906-18.5-0.499,0-0.977,0.034-1.469,0.063l3.563-6.469-2.75-1.531zm-44.532,11.375l-1.5313,2.75,10.407,5.781,1.5-2.75-10.376-5.781zm45.188,1.344c10.088,0,18.319,7.377,19.844,17.031l0.468,2.906,2.75-1.031c1.734-0.658,3.538-1.063,5.438-1.063,8.58,0,15.5,6.89,15.5,15.469s-6.921,15.5-15.5,15.5h-16.375-17.844-32.719c-2.576,0-4.757-0.53-6.062-1.406s-2-1.922-2-4.156c0-4.463,3.5946-8.032,8.062-8.032,0.74,0,1.486,0.128,2.313,0.375l3.063,0.938v-3.219c0-0.288,0.007-0.458,0-0.5,0.133-5.302,4.412-9.5,9.75-9.5-0.078,0,0.118,0.026,0.656,0.062l2.656,0.188-0.125-2.656c-0.029-0.651-0.063-0.871-0.063-0.719,0-11.178,9.002-20.187,20.188-20.187zm-51.25,16.062v3.125h11.906v-3.125h-11.906z"/>
<path id="blizzard" d="m40.969,0.0010566c-1.0006,0.015157-2.0151,0.19516-3.0312,0.56249-0.43506,0.15727-1.228,0.5569-1.4062,0.68749-0.06475,0.047442-0.04471,0.094866,0.40625,0.90624l0.5,0.87499,0.375-0.21875c1.0499-0.55498,2.0713-0.78254,3.3125-0.78124,1.8787,0.00185,3.6166,0.6879,4.9375,2,0.9352,0.92897,1.6147,2.102,1.9062,3.3125,0.41842,1.7371,0.19508,3.5043-0.625,5.0624-1.0854,2.0622-3.1458,3.4496-5.5,3.7187-0.22746,0.02601-7.1115,0.03102-21.094,0.03125h-20.75v2h21.062l21.062-0.03125,0.46875-0.09375c1.9627-0.36965,3.611-1.2099,4.9375-2.5312,1.5461-1.54,2.4586-3.5881,2.625-5.8437,0.11542-1.5649-0.24926-3.3615-1-4.7812-1.111-2.099-2.963-3.6868-5.157-4.4063-1.026-0.3364-2.031-0.4839-3.031-0.46874zm23.781,0.125c-1.782,0.18419-3.361,0.71027-4.844,1.5624-2.428,1.3953-4.342,3.6561-5.281,6.2812-0.07242,0.20257-0.10195,0.3667-0.09375,0.375,0.0083,0.00827,0.40346,0.16682,0.90625,0.34375,0.70479,0.248,0.94506,0.28735,0.96875,0.25,0.0169-0.026648,0.05993-0.11557,0.09375-0.21875,0.08655-0.26389,0.33268-0.85474,0.5-1.1875,1.1642-2.3151,3.217-4.1125,5.6875-4.9374,1.0388-0.34686,2.0544-0.50129,3.125-0.49999,1.6064,0.00177,2.9752,0.32514,4.4062,1.0312,1.4656,0.72313,2.6236,1.6894,3.5625,2.9687,0.81055,1.1044,1.3278,2.2157,1.6562,3.5312,1.1791,4.7224-1.3093,9.6519-5.8438,11.531-1.331,0.55162-2.9948,0.8216-4.4062,0.71874-0.35108-0.02559-11.234-0.06227-32.844-0.0625h-32.344v2.0312l32.625,0.03125c17.948,0.0052,32.867-0.0051,33.156,0,2.8002,0.0493,5.8234-1.0739,7.9375-2.9687,1.1943-1.0704,2.0605-2.2173,2.75-3.5937,2.022-4.035,1.598-8.8132-1.093-12.437-1.884-2.537-4.614-4.1574-7.813-4.6562-0.625-0.09759-2.192-0.15786-2.812-0.09374zm-64.75,25.781v2h12.719c8.6705,0,12.845,0.0043,13.094,0.03125,2.1221,0.23064,4.0485,1.4088,5.1875,3.1562,0.46371,0.71139,0.85868,1.6855,1.0312,2.5312,0.31197,1.5289,0.09489,3.1277-0.625,4.5625-0.75782,1.5104-2.0875,2.7443-3.6562,3.375-1.9089,0.76738-3.985,0.66985-5.8438-0.25-0.2748-0.13599-0.4916-0.22705-0.5-0.21875-0.0083,0.0083-0.24197,0.38048-0.5,0.84374-0.42821,0.76868-0.46506,0.86205-0.40625,0.90624,0.11508,0.08644,0.84816,0.43906,1.1562,0.56249,0.80416,0.32216,1.7522,0.54006,2.625,0.62499,0.46505,0.04525,1.6095,0.0076,2.0625-0.0625,1.598-0.24716,2.966-0.78627,4.2188-1.7187,0.48023-0.35744,1.4115-1.3187,1.7812-1.8125,2.2148-2.9576,2.4239-6.9016,0.53125-10.094-0.70833-1.1946-1.5739-2.1151-2.7188-2.875-1.1243-0.74629-2.1973-1.1611-3.6562-1.4375-0.41249-0.07812-0.39749-0.08181-13.438-0.09375l-13.062-0.029zm68.438,2.4687-3.0312,1.9687,0,9.4686-5.2812-3-2.6875,1.5625,0,3.3125,7.8438,4.4687,0,6.2187-5.8438-3.125,0.03125,6.4374-5.5625-3.1875,0.03125-9.0937-3.0625-1.7812-2.5,1.6875,0,6.0937-8.25-4.7812-3.2188,1.6562,0,3.7812,8.375,4.5625-5.25,2.9375,0,3.4375,2.9062,1.4687,7.7812-4.5625,5.375,3.0937-5.375,3.3437,5.5312,3.1562,0.125,0.09375-5.4062,3.125-7.75-4.5937-3.0938,1.6875,0,3.4687,5.4375,2.7187-8.6562,4.7187,0,3.7812,3.5,1.5,8.25-4.6562,0,5.9687,2.5312,1.6562,2.9688-1.8437,0-8.9062,5.4375-3.1562,0,6.5937,5.6875-3.6562,0,6.2187-7.8438,4.4687,0,3.3125,2.6875,1.5625,5.2812-2.9687,0,9.4374l3.033,1.968,3.062-1.969v-9.4374l5.25,2.9687,2.6875-1.375v-3.5l-7.8438-4.4687v-6.2187l5.5625,3.375v-6.1874l5.7812,3.2812v8.9687l2.7812,1.5625,2.8125-1.5625v-5.9062l7.8125,4.4687,3.375-1.5625v-3.7187l-7.9688-4.7187,5-2.8125v-3.2187l-2.5625-1.8125-7.9688,4.4687-5.6875-3,5.5-3.1562-5.3438-3.3125,5.5312-3.5,7.9688,4.7187,2.6875-1.5v-3.375l-5.1875-2.9062,8.3125-4.7187v-3.5312l-2.9688-1.8125-8.5,4.5937v-6.2187l-2.9062-1.2812-2.75,1.2812v9.7186l-5.7188,3.125v-6.7499l-5.5312,3.375v-6.2187l8.0938-4.5937v-2.9687l-2.75-1.8437-5.4688,3.0625v-9.4686l-3.0625-1.9687zm-2.5,31.562,5.2812,0,2.5625,4.4687-2.4375,4.1562-5.2812,0-2.8125-4.1562,2.6875-4.4687z"/>
<path id="cold" d="M50,3.7812c-2.236,0.0561-4.242,0.829-5.812,2.125-1.961,1.617-3.219,4.0237-3.219,6.8438v55.812c-3.922,2.948-6.232,7.407-6.25,12.282-0.016,6.461,3.926,11.869,9.469,14.156,1.794,0.741,3.729,1.176,5.781,1.188,1.847,0.01,3.627-0.31,5.25-0.907,5.859-2.136,9.957-7.823,10.062-14.156,0.08-4.963-2.228-9.545-6.25-12.563v-56.218c0-2.9794-1.517-5.4549-3.812-6.969-1.479-0.978-3.296-1.5446-5.219-1.5938zm0,4c1.071,0.0273,2.082,0.3302,2.906,0.875,1.279,0.8435,2.125,2.2468,2.125,3.9058v18.75,30.563,8.937c3.707,1.85,6.25,5.67,6.25,10.094,0,6.231-5.05,11.282-11.281,11.282s-11.281-5.051-11.281-11.282c0-4.424,2.543-8.244,6.25-10.094v-8.937-30.344-18.75c0-1.571,0.689-2.9114,1.781-3.8122,0.875-0.7221,2.004-1.1564,3.25-1.1876zm-3.031,54.094v10.25c-3.636,1.258-6.25,4.718-6.25,8.781,0,5.127,4.155,9.282,9.281,9.282,5.127,0,9.281-4.155,9.281-9.282,0-4.063-2.614-7.523-6.25-8.781v-10.25h-6.062z"/>
<path id="du" d="M51.312,0c-5.182,0-9.974,1.68-13.874,4.5h27.687c-3.879-2.82-8.641-4.5-13.813-4.5zm-18.312,8.625c-1.135,1.375-2.102,2.891-2.906,4.5h42.312c-0.806-1.614-1.771-3.121-2.906-4.5h-36.5zm-4.5,8.625c-0.41,1.451-0.686,2.95-0.812,4.5h63.718c-2.932-1.897-6.403-3-10.156-3-2.34,0-4.568,0.47-6.625,1.25-0.15-0.948-0.368-1.843-0.625-2.75h-45.5zm-7.438,8.625c-2.04,1.037-3.774,2.58-5,4.5h82.532c-0.668-1.626-1.551-3.141-2.625-4.5h-74.907zm-6.718,8.625c-0.192,0.879-0.282,1.814-0.282,2.75,0,0.087,0.032,0.163,0.032,0.25-1.008-0.302-2.054-0.531-3.156-0.531-2.3638,0-4.5566,0.758-6.3442,2.031h95.344c0.038-0.499,0.062-0.991,0.062-1.5,0-1.025-0.092-2.02-0.25-3h-85.406zm-13.25,8.625c-0.66562,1.366-1.0531,2.889-1.0938,4.5h97.031c0.893-1.385,1.589-2.896,2.094-4.5h-98.031zm-0.25005,8.625c1.6598,3.194,5.5612,4.5,10.094,4.5h70.312c4.652,0,8.91-1.698,12.188-4.5h-92.594zm38.468,10.75c-0.759-0.008-1.556,0.309-2.25,0.938-1.335,1.169-1.566,2.837-1.562,4.343,0,0.72,0.028,1.412,0.062,2.094-0.312-0.273-0.654-0.545-1.093-0.813-0.923-0.583-1.719-0.901-2.5-0.906-1.983,0.081-2.569,1.987-2.625,4.063-2.107,1.723-2.485,8.9,1.25,7.656,2.024-0.679,2.888-3.279,2.687-5.063,0,0-0.133-2.52-2.406-2.906,0.113-1.699,0.571-2.25,1.094-2.25,0.322-0.007,0.906,0.152,1.687,0.656,1.414,0.98,1.839,1.344,2,2.25,0.022,0.858,0.123,2.878,0.125,2.969,0.215,3.013,0.671,5.308,1,8.344h-15.375l2.406,1.125,10.188,3.406,9.406-1.625,6.594,2.313,5.219-1.625,1.562-3.594h-17.75c-0.332-3.103-1.537-5.565-1.75-8.563,0.025-1.026,0.014-1.776-0.125-2.75-0.014-0.558-0.062-1.052-0.062-1.624,0-1.092-0.094-2.176-0.094-3.157,0.005-1.388,0.215-2.473,1.062-3.219,0.506-0.442,0.912-0.556,1.25-0.562,0.889-0.094,2.063,1.286,2.657,2.844-0.523,0.425-0.813,0.812-0.813,0.812-2.021,2.831,5.595,10.919,8.625,6.563,1.297-1.864-0.371-7.221-3.437-8.281-1.201-0.418-2.252-0.24-3.094,0.124-0.718-1.754-1.95-3.466-3.938-3.562zm4.282,4.281s3.683,2.507,4.718,6.969l-5.781-6.312,1.063-0.657zm-13.032,6.063l-1.031,5.781c-0.517-1.831,0-5.344,0-5.344l1.031-0.437zm-30.562,11.031v6.375l5.2188-2.781,1.5624-3.594h-6.7812zm8.6875,0l-2.0937,4.187,4.7812,6,4.594-2.75,4.781-5.937-1.469-1.5h-10.594zm50,0l-2.094,4.187,4.781,6,4.594-2.75,4.781-5.937-1.469-1.5h-10.593zm12.718,0l2.406,1.125,10.188,3.406,7.938-1.125,8.062-2.562v-0.844h-28.594zm-48.718,2.281l-4.563,5.656,12.5,6.782,7.625-1.469-5.375-7.594-10.187-3.375zm50,0l-4.563,5.656,12.5,6.782,7.625-1.469-5.375-7.594-10.187-3.375zm27.312,0l-5.281,1.406,5.281,1.532v-2.938zm-56.781,2.594l-7.688,1.031,5.031,7.313,13.344,2.906,5.813-4.75-4.375-5.75-5.344,1.438-6.781-2.188zm50,0l-7.688,1.031,5.031,7.313,9.438,2.218v-8.374l-6.781-2.188zm-87.875,0.75l-5.3438,2.562v7.938h3.9062l5.8126-4.781-4.375-5.719zm11.406,3.625l-8.1562,5.531,1.0937,1.344h18.718l-0.062-0.281-11.594-6.594zm50,0l-8.156,5.531,1.094,1.344h18.718l-0.062-0.281-11.594-6.594zm-27.062,5.469l-6.376,1.406h12.219l-5.843-1.406zm50,0l-6.376,1.406h12.219l-5.843-1.406z"/>
<path id="02d" d="M43.031,0v15.344h4v-15.344h-4zm-17.75,4.375l-3.406,2.1562,8.125,13,3.406-2.125-8.125-13.031zm39.781,0.4062l-7.437,13.407,3.531,1.968,7.406-13.406-3.5-1.9688zm-57.281,14.625l-1.9687,3.532,13.376,7.437,1.968-3.531-13.375-7.438zm37.281,0.594c-13.724,0-24.874,11.166-24.874,24.938,0,13.77,11.15,24.94,24.874,24.937,13.716,0,24.813-11.165,24.813-24.937s-11.099-24.938-24.813-24.938zm37.563,0.5l-13.25,7.656,2.031,3.5,13.25-7.656-2.031-3.5zm-82.625,21.281v4.031h15.312v-4.031h-15.312zm74.688,0.25v4.031h15.312v-4.031h-15.312zm-57.219,14.094l-12.969,8.156,2.0938,3.407,13-8.126-2.125-3.437zm54.437,0.875l-1.968,3.531,13.406,7.438,1.937-3.531-13.375-7.438zm-10.187,12.25l-3.469,2,7.656,13.312,3.469-2-7.656-13.312zm-33.438,0.094l-7.406,13.437,3.5,1.969,7.437-13.438-3.531-1.968zm14.5,5.312v15.344h4.031v-15.344h-4.031zm37.719,2c-5.303,0-9.565,4.213-9.875,9.438-2.591,0.249-4.6,2.193-5.063,4.718-0.152-0.016-0.276-0.062-0.437-0.062-2.817,0-5.125,2.31-5.125,5.125,0,1.408,0.671,2.588,1.656,3.25,0.986,0.662,2.198,0.875,3.469,0.875h13.094,7.125,6.562c4.46,0,8.094-3.633,8.094-8.094s-3.633-8.094-8.094-8.094c-0.677,0-1.29,0.185-1.906,0.344-1.127-4.272-4.881-7.5-9.5-7.5zm0,1.906c4.035,0,7.328,2.983,7.938,6.844l0.187,1.156,1.094-0.437c0.693-0.263,1.427-0.406,2.187-0.406,3.432,0,6.188,2.756,6.188,6.187,0,3.432-2.756,6.188-6.188,6.188h-6.562-7.125-13.094c-1.031,0-1.884-0.212-2.406-0.563-0.522-0.35-0.813-0.762-0.813-1.656,0-1.785,1.432-3.219,3.219-3.219,0.296,0,0.576,0.057,0.906,0.156l1.25,0.376v-1.282c0-0.059-0.028-0.061-0.031-0.094,0-0.054-0.005-0.05,0-0.062-0.001-0.005,0.001-0.029,0-0.031,0.05-2.124,1.77-3.813,3.906-3.813-0.031,0,0.066,0.017,0.282,0.032l1.062,0.062-0.031-1.062c-0.012-0.261-0.063-0.343-0.063-0.282,0-4.471,3.62-8.094,8.094-8.094z"/>
<path id="02n" d="M43.031,0v15.344h4v-15.344h-4zm-17.75,4.375l-3.406,2.1562,8.125,13,3.406-2.125-8.125-13.031zm39.781,0.4062l-7.437,13.407,3.531,1.968,7.406-13.406-3.5-1.9688zm-57.281,14.625l-1.9687,3.532,13.376,7.437,1.968-3.531-13.375-7.438zm37.281,0.594c-13.724,0-24.874,11.166-24.874,24.938,0,13.77,11.15,24.94,24.874,24.937,13.716,0,24.813-11.165,24.813-24.937s-11.099-24.938-24.813-24.938zm37.563,0.5l-13.25,7.656,2.031,3.5,13.25-7.656-2.031-3.5zm-82.625,21.281v4.031h15.312v-4.031h-15.312zm74.688,0.25v4.031h15.312v-4.031h-15.312zm-57.219,14.094l-12.969,8.156,2.0938,3.407,13-8.126-2.125-3.437zm54.437,0.875l-1.968,3.531,13.406,7.438,1.937-3.531-13.375-7.438zm-10.187,12.25l-3.469,2,7.656,13.312,3.469-2-7.656-13.312zm-33.438,0.094l-7.406,13.437,3.5,1.969,7.437-13.438-3.531-1.968zm14.5,5.312v15.344h4.031v-15.344h-4.031zm37.719,2c-5.303,0-9.565,4.213-9.875,9.438-2.591,0.249-4.6,2.193-5.063,4.718-0.152-0.016-0.276-0.062-0.437-0.062-2.817,0-5.125,2.31-5.125,5.125,0,1.408,0.671,2.588,1.656,3.25,0.986,0.662,2.198,0.875,3.469,0.875h13.094,7.125,6.562c4.46,0,8.094-3.633,8.094-8.094s-3.633-8.094-8.094-8.094c-0.677,0-1.29,0.185-1.906,0.344-1.127-4.272-4.881-7.5-9.5-7.5zm0,1.906c4.035,0,7.328,2.983,7.938,6.844l0.187,1.156,1.094-0.437c0.693-0.263,1.427-0.406,2.187-0.406,3.432,0,6.188,2.756,6.188,6.187,0,3.432-2.756,6.188-6.188,6.188h-6.562-7.125-13.094c-1.031,0-1.884-0.212-2.406-0.563-0.522-0.35-0.813-0.762-0.813-1.656,0-1.785,1.432-3.219,3.219-3.219,0.296,0,0.576,0.057,0.906,0.156l1.25,0.376v-1.282c0-0.059-0.028-0.061-0.031-0.094,0-0.054-0.005-0.05,0-0.062-0.001-0.005,0.001-0.029,0-0.031,0.05-2.124,1.77-3.813,3.906-3.813-0.031,0,0.066,0.017,0.282,0.032l1.062,0.062-0.031-1.062c-0.012-0.261-0.063-0.343-0.063-0.282,0-4.471,3.62-8.094,8.094-8.094z"/>
<path id="50d" d="M51.312,21.875c-5.183,0-9.974,1.68-13.874,4.5h27.687c-3.879-2.82-8.642-4.5-13.813-4.5zm-18.312,8.625c-1.135,1.375-2.102,2.891-2.906,4.5h42.312c-0.806-1.614-1.771-3.121-2.906-4.5h-36.5zm-4.5,8.625c-0.41,1.451-0.686,2.95-0.812,4.5h63.718c-2.932-1.897-6.403-3-10.156-3-2.34,0-4.568,0.47-6.625,1.25-0.15-0.948-0.368-1.843-0.625-2.75h-45.5zm-7.438,8.625c-2.041,1.037-3.774,2.58-5,4.5h82.532c-0.668-1.626-1.551-3.141-2.625-4.5h-74.907zm-6.718,8.625c-0.192,0.879-0.282,1.814-0.282,2.75,0,0.087,0.032,0.163,0.032,0.25-1.008-0.302-2.054-0.531-3.156-0.531-2.3633,0-4.5566,0.758-6.3442,2.031h95.344c0.039-0.499,0.062-0.991,0.062-1.5,0-1.025-0.092-2.02-0.25-3h-85.406zm-13.25,8.625c-0.66557,1.366-1.0531,2.889-1.0938,4.5h97.031c0.893-1.385,1.589-2.896,2.094-4.5h-98.031zm-0.25005,8.625c1.6598,3.194,5.5614,4.5,10.094,4.5h70.312c4.652,0,8.91-1.698,12.188-4.5h-92.594z"/>
<path id="50n" d="M51.312,21.875c-5.183,0-9.974,1.68-13.874,4.5h27.687c-3.879-2.82-8.642-4.5-13.813-4.5zm-18.312,8.625c-1.135,1.375-2.102,2.891-2.906,4.5h42.312c-0.806-1.614-1.771-3.121-2.906-4.5h-36.5zm-4.5,8.625c-0.41,1.451-0.686,2.95-0.812,4.5h63.718c-2.932-1.897-6.403-3-10.156-3-2.34,0-4.568,0.47-6.625,1.25-0.15-0.948-0.368-1.843-0.625-2.75h-45.5zm-7.438,8.625c-2.041,1.037-3.774,2.58-5,4.5h82.532c-0.668-1.626-1.551-3.141-2.625-4.5h-74.907zm-6.718,8.625c-0.192,0.879-0.282,1.814-0.282,2.75,0,0.087,0.032,0.163,0.032,0.25-1.008-0.302-2.054-0.531-3.156-0.531-2.3633,0-4.5566,0.758-6.3442,2.031h95.344c0.039-0.499,0.062-0.991,0.062-1.5,0-1.025-0.092-2.02-0.25-3h-85.406zm-13.25,8.625c-0.66557,1.366-1.0531,2.889-1.0938,4.5h97.031c0.893-1.385,1.589-2.896,2.094-4.5h-98.031zm-0.25005,8.625c1.6598,3.194,5.5614,4.5,10.094,4.5h70.312c4.652,0,8.91-1.698,12.188-4.5h-92.594z"/>
<path id="fu" d="M51.312,0c-5.182,0-9.974,1.68-13.874,4.5h27.687c-3.879-2.82-8.641-4.5-13.813-4.5zm-18.312,8.625c-1.135,1.375-2.102,2.891-2.906,4.5h42.312c-0.806-1.614-1.771-3.121-2.906-4.5h-36.5zm-4.5,8.625c-0.41,1.451-0.686,2.95-0.812,4.5h63.718c-2.932-1.897-6.403-3-10.156-3-2.34,0-4.568,0.47-6.625,1.25-0.15-0.948-0.368-1.843-0.625-2.75h-45.5zm-7.438,8.625c-2.04,1.037-3.774,2.58-5,4.5h82.532c-0.668-1.626-1.551-3.141-2.625-4.5h-74.907zm-6.718,8.625c-0.192,0.879-0.282,1.814-0.282,2.75,0,0.087,0.032,0.163,0.032,0.25-1.008-0.302-2.054-0.531-3.156-0.531-2.3638,0-4.5566,0.758-6.3442,2.031h95.344c0.038-0.499,0.062-0.991,0.062-1.5,0-1.025-0.092-2.02-0.25-3h-85.406zm-13.25,8.625c-0.66562,1.366-1.0531,2.889-1.0938,4.5h97.031c0.893-1.385,1.589-2.896,2.094-4.5h-98.031zm-0.25005,8.625c1.6598,3.194,5.5612,4.5,10.094,4.5h70.312c4.652,0,8.91-1.698,12.188-4.5h-92.594zm36.781,5.469c-1.524,1.269-2.656,2.59-2.656,3.969,0,0.735,0.502,1.755,1.312,2.624,0.926,1.072,1.199,2.288,1.344,2.657,0.959-0.765,1.313-1.671,1.313-2.657,0-0.735-0.801-1.727-1.313-2.624-0.66-1.214,0.153-2.866,0-3.969zm-6.625,2.625c-0.004,0.156-3.809,6.267-1.344,9.281,3.827,4.666,2.211,8.27,0,7.937-3.714-0.556-3.241-5.403-2.625-6.624-1.941-0.205-4.201,1.01-5.312,2.656-3.342,4.963,3.887,9.72,1.312,13.25-1.959,2.689-5.292-2.615-5.281-2.656-3.976,20.752,24.882,21.272,26.469,3.968,0.472-5.19,5.162-8.004,5.312-7.937-4.976-2.295-7.937,1.478-7.937,1.312,0-0.65,2.782-9.29-2.656-11.906-6.267-3.014-7.99-5.429-7.938-9.281zm-1.344,23.844c0.02,0.041,3.265,0.534,5.313,2.656,3.14,3.242,2.773,9.076-2.657,9.281-6.942,0.256-6.212-4.95-5.281-6.625,1.183-2.133,4.153-2.568,2.625-5.312z"/>
<path id="fzra" d="M42.312,14.812c-10.476,0-18.937,8.499-18.937,18.969,0,0.237,0.052,0.451,0.063,0.688-0.237-0.016-0.451-0.063-0.688-0.063-5.636,0-10.219,4.583-10.219,10.219,0,0.07,0.031,0.118,0.031,0.187-0.806-0.241-1.648-0.406-2.531-0.406-4.8342,0-8.7498,3.921-8.7498,8.75,0,4.835,3.9156,6.656,8.7498,6.656h56.25c8.287,0,15-6.713,15-15s-6.713-15-15-15c-1.872,0-3.667,0.408-5.312,1.032-1.431-9.057-9.202-16.032-18.657-16.032zm48.126,20.376c-1.21,0.03-2.276,0.423-3.126,1.124-1.06,0.875-1.75,2.193-1.75,3.719v30.188c-2.122,1.594-3.365,4.018-3.374,6.656-0.009,3.496,2.126,6.419,5.124,7.656,0.971,0.401,2.015,0.651,3.126,0.657,0.999,0.006,1.965-0.177,2.843-0.5,3.171-1.156,5.381-4.23,5.438-7.657,0.043-2.685-1.199-5.179-3.375-6.812v-30.407c0-1.612-0.821-2.962-2.063-3.781-0.799-0.529-1.772-0.817-2.812-0.843h-0.031zm0,2.156c0.579,0.015,1.147,0.174,1.593,0.468,0.692,0.457,1.157,1.227,1.157,2.126v31.5c2.005,1,3.374,3.074,3.374,5.468,0,3.372-2.753,6.094-6.124,6.094-3.372,0-6.094-2.722-6.094-6.094,0-2.393,1.369-4.468,3.375-5.468v-31.407c0-0.85,0.378-1.575,0.969-2.062,0.473-0.391,1.076-0.608,1.75-0.625zm-70.376,27.437l-7.218,19.844,1.531,0.563,7.437-20.407h-1.75zm8.25,0l-7.218,19.844,1.562,0.563,7.406-20.407h-1.75zm8.282,0l-7.219,19.844,1.531,0.563,7.438-20.407h-1.75zm8.25,0l-7.219,19.844,1.531,0.563,7.438-20.407h-1.75zm8.25,0l-7.219,19.844,1.563,0.563,7.406-20.407h-1.75zm8.281,0l-7.219,19.844,1.532,0.563,7.437-20.407h-1.75zm27.437,1.844v5.531c-1.966,0.681-3.374,2.552-3.374,4.75,0,2.774,2.226,5.032,5,5.032s5.031-2.258,5.031-5.032c0-2.198-1.408-4.069-3.375-4.75v-5.531h-3.282z"/>
<path id="10d" d="m73.078,1.875,0,8.5312,2.2188,0,0-8.5312-2.2188,0zm-9.875,2.4062-1.875,1.2188,4.5,7.2188,1.9062-1.1875-4.5312-7.25zm22.125,0.25-4.125,7.4375,1.9375,1.0938,4.125-7.4688-1.9375-1.0625zm-31.844,8.125-1.0625,1.9375,7.4062,4.1562,1.0938-1.9688-7.4375-4.125zm20.719,0.3125c-7.625,0-13.812,6.224-13.812,13.875,0,7.65,6.1875,13.845,13.812,13.844,7.619,0,13.781-6.1928,13.781-13.844,0-7.65-6.1622-13.875-13.781-13.875zm20.875,0.28125-7.375,4.25,1.125,1.9688,7.375-4.2812-1.125-1.9375zm-45.906,11.812,0,2.25,8.5,0,0-2.25-8.5,0zm41.5,0.15625,0,2.2188,8.5,0,0-2.2188-8.5,0zm-31.812,7.8125-7.1875,4.5312,1.1562,1.9062,7.2188-4.5312-1.1875-1.9062zm30.25,0.5-1.0625,1.9688,7.4062,4.125,1.0938-1.9688-7.4375-4.125zm-54.094,3.5625c-8.8406,0-15.952,7.0403-16.469,15.75-4.3198,0.41518-7.666,3.6658-8.4375,7.875-0.25345-0.02661-0.4506-0.125-0.71875-0.125-4.6961,0-8.5625,3.8389-8.5625,8.5312,0,2.3476,1.108,4.3341,2.75,5.4375,1.6436,1.1041,3.6939,1.4688,5.8125,1.4688h21.812,11.875,10.938c7.4348,0,13.5-6.0639,13.5-13.5s-6.0638-13.5-13.5-13.5c-1.1286,0-2.1604,0.29785-3.1875,0.5625-1.8785-7.1211-8.1131-12.5-15.812-12.5zm0,3.1875c6.7262,0,12.201,4.9699,13.219,11.406l0.3125,1.9375,1.8438-0.75c1.1552-0.43828,2.3578-0.65625,3.625-0.65625,5.7208,0,10.344,4.5931,10.344,10.312,0,5.7208-4.6229,10.312-10.344,10.312h-10.938-11.875-21.812c-1.7188,0-3.1608-0.35219-4.0312-0.9375-0.8702-0.58322-1.3438-1.2907-1.3438-2.7812,0-2.9749,2.3959-5.3438,5.375-5.3438,0.49359,0,0.94969,0.08547,1.5,0.25l2.0938,0.625v-2.125c0-0.09802-0.0576-0.10094-0.0625-0.15625,0-0.08962-0.008-0.1047,0-0.125-0.001-0.0084,0.001-0.02845,0-0.03125,0.0833-3.5413,2.9391-6.375,6.5-6.375-0.0518,0,0.14013,0.0373,0.5,0.0625l1.75,0.09375-0.0625-1.75c-0.01274-0.28261-0.06568-0.42474-0.09375-0.46875,0-0.02538-0.0087-0.03558,0-0.03125,0.01709-7.4384,6.052-13.469,13.5-13.469zm48.438,0.0625-1.9062,1.125,4.25,7.375,1.9062-1.125-4.25-7.375zm-18.562,0.0625-4.125,7.4375,1.9688,1.0938,4.125-7.4688-1.9688-1.0625zm8.0625,2.9375,0,8.5312,2.2188,0,0-8.5312-2.2188,0zm-57.344,36.938-6.3438,17.344,1.375,0.5,6.5-17.844-1.5312,0zm12.031,0-6.3125,17.344,1.3438,0.5,6.5-17.844-1.5312,0zm12.062,0-6.3125,17.344,1.3438,0.5,6.5-17.844-1.5312,0zm12.031,0-6.2812,17.344,1.3438,0.5,6.5-17.844-1.5625,0z"/>
<path id="10n" d="m73.078,1.875,0,8.5312,2.2188,0,0-8.5312-2.2188,0zm-9.875,2.4062-1.875,1.2188,4.5,7.2188,1.9062-1.1875-4.5312-7.25zm22.125,0.25-4.125,7.4375,1.9375,1.0938,4.125-7.4688-1.9375-1.0625zm-31.844,8.125-1.0625,1.9375,7.4062,4.1562,1.0938-1.9688-7.4375-4.125zm20.719,0.3125c-7.625,0-13.812,6.224-13.812,13.875,0,7.65,6.1875,13.845,13.812,13.844,7.619,0,13.781-6.1928,13.781-13.844,0-7.65-6.1622-13.875-13.781-13.875zm20.875,0.28125-7.375,4.25,1.125,1.9688,7.375-4.2812-1.125-1.9375zm-45.906,11.812,0,2.25,8.5,0,0-2.25-8.5,0zm41.5,0.15625,0,2.2188,8.5,0,0-2.2188-8.5,0zm-31.812,7.8125-7.1875,4.5312,1.1562,1.9062,7.2188-4.5312-1.1875-1.9062zm30.25,0.5-1.0625,1.9688,7.4062,4.125,1.0938-1.9688-7.4375-4.125zm-54.094,3.5625c-8.8406,0-15.952,7.0403-16.469,15.75-4.3198,0.41518-7.666,3.6658-8.4375,7.875-0.25345-0.02661-0.4506-0.125-0.71875-0.125-4.6961,0-8.5625,3.8389-8.5625,8.5312,0,2.3476,1.108,4.3341,2.75,5.4375,1.6436,1.1041,3.6939,1.4688,5.8125,1.4688h21.812,11.875,10.938c7.4348,0,13.5-6.0639,13.5-13.5s-6.0638-13.5-13.5-13.5c-1.1286,0-2.1604,0.29785-3.1875,0.5625-1.8785-7.1211-8.1131-12.5-15.812-12.5zm0,3.1875c6.7262,0,12.201,4.9699,13.219,11.406l0.3125,1.9375,1.8438-0.75c1.1552-0.43828,2.3578-0.65625,3.625-0.65625,5.7208,0,10.344,4.5931,10.344,10.312,0,5.7208-4.6229,10.312-10.344,10.312h-10.938-11.875-21.812c-1.7188,0-3.1608-0.35219-4.0312-0.9375-0.8702-0.58322-1.3438-1.2907-1.3438-2.7812,0-2.9749,2.3959-5.3438,5.375-5.3438,0.49359,0,0.94969,0.08547,1.5,0.25l2.0938,0.625v-2.125c0-0.09802-0.0576-0.10094-0.0625-0.15625,0-0.08962-0.008-0.1047,0-0.125-0.001-0.0084,0.001-0.02845,0-0.03125,0.0833-3.5413,2.9391-6.375,6.5-6.375-0.0518,0,0.14013,0.0373,0.5,0.0625l1.75,0.09375-0.0625-1.75c-0.01274-0.28261-0.06568-0.42474-0.09375-0.46875,0-0.02538-0.0087-0.03558,0-0.03125,0.01709-7.4384,6.052-13.469,13.5-13.469zm48.438,0.0625-1.9062,1.125,4.25,7.375,1.9062-1.125-4.25-7.375zm-18.562,0.0625-4.125,7.4375,1.9688,1.0938,4.125-7.4688-1.9688-1.0625zm8.0625,2.9375,0,8.5312,2.2188,0,0-8.5312-2.2188,0zm-57.344,36.938-6.3438,17.344,1.375,0.5,6.5-17.844-1.5312,0zm12.031,0-6.3125,17.344,1.3438,0.5,6.5-17.844-1.5312,0zm12.062,0-6.3125,17.344,1.3438,0.5,6.5-17.844-1.5312,0zm12.031,0-6.2812,17.344,1.3438,0.5,6.5-17.844-1.5625,0z"/>
<path id="hot" d="m50,3.7812c-2.2361,0.056002-4.2425,0.82896-5.8125,2.125-1.9601,1.617-3.2188,4.0236-3.2188,6.8438v55.812c-3.9221,2.9471-6.232,7.4064-6.25,12.281-0.016,6.4612,3.9266,11.869,9.4688,14.156,1.794,0.74102,3.7292,1.1765,5.7812,1.1875,1.8471,0.011,3.627-0.30923,5.25-0.90625,5.8592-2.1361,9.957-7.8234,10.062-14.156,0.08-4.9631-2.2279-9.5449-6.25-12.562v-56.219c0-2.9791-1.5174-5.4546-3.8125-6.9688-1.478-0.9772-3.295-1.5438-5.218-1.593zm0,4c1.0714,0.027299,2.0824,0.33013,2.9062,0.875,1.2786,0.84349,2.125,2.2466,2.125,3.9062v18.75,30.562,8.9375c3.7066,1.8491,6.25,5.6698,6.25,10.094,0,6.2312-5.0504,11.281-11.281,11.281-6.2312,0-11.281-5.0504-11.281-11.281,0-4.4238,2.5434-8.2444,6.25-10.094v-8.9375-30.344-18.75c0-1.5711,0.68933-2.9116,1.7812-3.8125,0.87469-0.72204,2.0043-1.1563,3.25-1.1875zm-3.0312,10.094,0,54.25c-3.6353,1.2579-6.25,4.7182-6.25,8.7812,0,5.1266,4.1548,9.2812,9.2812,9.2812,5.1266,0,9.2812-4.1548,9.2812-9.2812,0-4.0631-2.6147-7.5234-6.25-8.7812v-54.25z"/>
<path id="ip" d="M51.312,4.6875c-13.094,0-23.718,10.6-23.718,23.688,0,0.296,0.08,0.579,0.094,0.875-0.296-0.02-0.58-0.094-0.876-0.094-7.044,0-12.75,5.705-12.75,12.75,0,0.087,0.032,0.163,0.032,0.25-1.008-0.302-2.054-0.5-3.156-0.5-6.0435,0-10.938,4.901-10.938,10.938,0,6.043,4.8945,8.344,10.938,8.344h70.312c10.358,0,18.75-8.392,18.75-18.75,0-10.36-8.391-18.75-18.75-18.75-2.34,0-4.568,0.47-6.625,1.25-1.788-11.322-11.495-20-23.313-20zm-9.562,59.594c-0.973,0.049-1.864,0.653-2.219,1.625-0.473,1.297,0.204,2.745,1.5,3.219,1.297,0.473,2.745-0.203,3.219-1.5s-0.203-2.745-1.5-3.219c-0.324-0.118-0.676-0.141-1-0.125zm34.438,0c-0.973,0.049-1.864,0.653-2.219,1.625-0.474,1.297,0.203,2.745,1.5,3.219,1.296,0.473,2.714-0.203,3.187-1.5,0.474-1.297-0.172-2.745-1.468-3.219-0.325-0.118-0.676-0.141-1-0.125zm-52.126,1c-0.778,0.039-1.497,0.535-1.781,1.313-0.379,1.037,0.182,2.183,1.219,2.562s2.184-0.181,2.562-1.218c0.379-1.038-0.181-2.184-1.218-2.563-0.26-0.095-0.522-0.107-0.782-0.094zm34.438,0c-0.778,0.039-1.497,0.535-1.781,1.313-0.379,1.037,0.15,2.183,1.187,2.562,1.038,0.379,2.184-0.181,2.563-1.218,0.379-1.038-0.151-2.184-1.188-2.563-0.259-0.095-0.522-0.107-0.781-0.094zm-19.125,5.5c-0.973,0.049-1.864,0.684-2.219,1.657-0.473,1.296,0.204,2.713,1.5,3.187,1.297,0.473,2.714-0.203,3.188-1.5,0.473-1.297-0.172-2.714-1.469-3.187-0.324-0.119-0.676-0.173-1-0.157zm34.437,0c-0.972,0.049-1.863,0.684-2.218,1.657-0.474,1.296,0.203,2.713,1.5,3.187,1.296,0.473,2.714-0.203,3.187-1.5,0.474-1.297-0.203-2.714-1.5-3.187-0.324-0.119-0.644-0.173-0.969-0.157zm-52.124,1c-0.779,0.039-1.498,0.535-1.782,1.313-0.379,1.037,0.151,2.183,1.188,2.562s2.215-0.15,2.594-1.187c0.378-1.038-0.182-2.184-1.219-2.563-0.26-0.094-0.522-0.138-0.781-0.125zm34.437,0c-0.778,0.039-1.497,0.535-1.781,1.313-0.379,1.037,0.15,2.183,1.187,2.562,1.038,0.379,2.184-0.15,2.563-1.187,0.379-1.038-0.151-2.184-1.188-2.563-0.259-0.094-0.522-0.138-0.781-0.125zm-19.125,5.5c-0.973,0.049-1.864,0.684-2.219,1.657-0.473,1.296,0.204,2.745,1.5,3.218,1.297,0.474,2.714-0.203,3.188-1.5,0.473-1.296-0.172-2.745-1.469-3.218-0.324-0.119-0.676-0.173-1-0.157zm34.438,0c-0.973,0.049-1.864,0.684-2.219,1.657-0.474,1.296,0.172,2.745,1.469,3.218,1.296,0.474,2.745-0.203,3.218-1.5,0.474-1.296-0.203-2.745-1.5-3.218-0.324-0.119-0.644-0.173-0.968-0.157zm-52.126,1c-0.778,0.039-1.497,0.535-1.781,1.313-0.379,1.037,0.151,2.215,1.188,2.594,1.037,0.378,2.183-0.182,2.562-1.219,0.379-1.038-0.15-2.184-1.187-2.563-0.26-0.094-0.522-0.138-0.782-0.125zm34.438,0c-0.778,0.039-1.497,0.535-1.781,1.313-0.379,1.037,0.15,2.215,1.187,2.594,1.038,0.378,2.184-0.182,2.563-1.219,0.379-1.038-0.151-2.184-1.188-2.563-0.259-0.094-0.522-0.138-0.781-0.125zm-19.125,5.531c-0.973,0.049-1.864,0.653-2.219,1.626-0.473,1.296,0.204,2.745,1.5,3.218,1.297,0.474,2.714-0.203,3.188-1.5,0.473-1.296-0.204-2.714-1.5-3.187-0.324-0.119-0.645-0.173-0.969-0.157zm34.437,0c-0.972,0.049-1.863,0.653-2.218,1.626-0.474,1.296,0.172,2.745,1.468,3.218,1.297,0.474,2.746-0.203,3.219-1.5,0.474-1.296-0.203-2.714-1.5-3.187-0.324-0.119-0.644-0.173-0.969-0.157zm-52.124,1c-0.779,0.039-1.498,0.535-1.782,1.313-0.379,1.037,0.151,2.184,1.188,2.563,1.037,0.378,2.183-0.151,2.562-1.188s-0.15-2.184-1.187-2.562c-0.26-0.095-0.522-0.138-0.781-0.126zm34.437,0c-0.778,0.039-1.497,0.535-1.781,1.313-0.379,1.037,0.15,2.184,1.187,2.563,1.038,0.378,2.184-0.151,2.563-1.188s-0.151-2.184-1.188-2.562c-0.259-0.095-0.522-0.138-0.781-0.126zm-24.844,2.219c-1.38,0-2.5,1.12-2.5,2.5,0,1.381,1.12,2.5,2.5,2.5,1.381,0,2.5-1.119,2.5-2.5,0-1.38-1.119-2.5-2.5-2.5zm34.438,0c-1.381,0-2.5,1.12-2.5,2.5,0,1.381,1.119,2.5,2.5,2.5,1.38,0,2.5-1.119,2.5-2.5,0-1.38-1.12-2.5-2.5-2.5zm-52.156,1c-1.1046,0-2,0.896-2,2,0,1.105,0.8954,2,2,2s1.9995-0.895,1.9995-2c0-1.104-0.8949-2-1.9995-2zm34.438,0c-1.105,0-2,0.896-2,2,0,1.105,0.895,2,2,2s2-0.895,2-2c0-1.104-0.895-2-2-2zm-11,2.281c-0.973,0.049-1.864,0.684-2.219,1.657-0.473,1.296,0.172,2.714,1.469,3.187,1.297,0.474,2.745-0.172,3.219-1.468,0.473-1.297-0.204-2.746-1.5-3.219-0.324-0.119-0.645-0.173-0.969-0.157zm34.438,0c-0.973,0.049-1.864,0.684-2.219,1.657-0.474,1.296,0.172,2.714,1.469,3.187,1.296,0.474,2.745-0.172,3.218-1.468,0.474-1.297-0.203-2.746-1.5-3.219-0.324-0.119-0.644-0.173-0.968-0.157zm-52.126,1c-0.778,0.039-1.497,0.535-1.781,1.313-0.379,1.037,0.151,2.184,1.188,2.563,1.037,0.378,2.183-0.151,2.562-1.188s-0.15-2.184-1.187-2.562c-0.26-0.095-0.522-0.138-0.782-0.126zm34.438,0c-0.778,0.039-1.497,0.535-1.781,1.313-0.379,1.037,0.15,2.184,1.187,2.563,1.038,0.378,2.184-0.151,2.563-1.188s-0.151-2.184-1.188-2.562c-0.259-0.095-0.522-0.138-0.781-0.126z"/>
<path id="mix" d="M25.5,2l-2.25,1.4688v7.0312l-3.938-2.1875-2,1.1563v2.4692l5.844,3.312v4.625l-4.344-2.313v4.782l-4.124-2.375v-6.781l-2.25-1.313-1.876,1.25v4.531l-6.1558-3.531-2.4062,1.219v2.812l6.25,3.406-3.9062,2.188v2.562l2.1562,1.094,5.781-3.406,4.031,2.312-4,2.5,4.126,2.344,0.093,0.094-4.031,2.312-5.7812-3.406-2.3126,1.25v2.563l4.0626,2.031-6.4688,3.531v2.813l2.625,1.094,6.156-3.469v4.469l1.875,1.25,2.219-1.376v-6.656l4.031-2.344v4.907l4.25-2.719v4.625l-5.844,3.344v2.469l2,1.156,3.938-2.219v7.063l2.25,1.437,2.281-1.437v-7.063l3.938,2.219,2-1v-2.625l-5.844-3.344v-4.625l4.125,2.531v-4.625l4.344,2.438v6.687l2.031,1.157,2.094-1.157v-4.406l5.843,3.313,2.532-1.126v-2.781l-5.938-3.531,3.719-2.094v-2.406l-1.906-1.344-5.969,3.313-4.219-2.188,4.094-2.375-3.969-2.468,4.094-2.626,5.969,3.532,2-1.125v-2.5l-3.875-2.188,6.187-3.5v-2.625l-2.219-1.375-6.343,3.438v-4.657l-2.157-0.937-2.031,0.937v7.282l-4.281,2.312v-5.031l-4.125,2.5v-4.625l6.063-3.438v-2.187l-2.063-1.375-4.094,2.25v-7.0312l-2.281-1.4688zm68.438,1.9375l-90,90,2.125,2.124,90-90-2.124-2.125zm-2.313,10.75c-0.939,0.03-1.808,0.36-2.469,0.906-0.833,0.688-1.344,1.706-1.344,2.906v23.75c-1.668,1.254-2.648,3.145-2.656,5.219-0.007,2.748,1.643,5.058,4,6.031,0.763,0.315,1.596,0.495,2.469,0.5,0.786,0.005,1.56-0.121,2.25-0.375,2.492-0.909,4.205-3.338,4.25-6.031,0.034-2.111-0.945-4.06-2.656-5.344v-23.906c0-1.267-0.618-2.325-1.594-2.969-0.621-0.411-1.412-0.662-2.219-0.687h-0.031zm0.031,1.718c0.456,0.012,0.869,0.144,1.219,0.375,0.544,0.359,0.906,0.951,0.906,1.657v24.781c1.577,0.786,2.657,2.399,2.657,4.281,0,2.65-2.132,4.812-4.782,4.812s-4.812-2.162-4.812-4.812c0-1.882,1.079-3.495,2.656-4.281v-24.688c0-0.668,0.286-1.242,0.75-1.625,0.372-0.307,0.876-0.486,1.406-0.5zm-68,9.125h3.938l1.906,3.313-1.812,3.125h-3.938l-2.125-3.125,2.031-3.313zm66.688,13.875v4.375c-1.546,0.535-2.656,1.991-2.656,3.719,0,2.18,1.788,3.938,3.968,3.938,2.181,0,3.938-1.758,3.938-3.938,0-1.728-1.11-3.184-2.656-3.719v-4.375h-2.594zm-22.25,4.563c-8.046,0-14.563,6.521-14.563,14.562,0,0.182,0.024,0.35,0.031,0.531-0.181-0.012-0.349-0.062-0.531-0.062-4.328,0-7.843,3.515-7.843,7.844,0,0.053,0.031,0.103,0.031,0.156-0.62-0.186-1.26-0.312-1.938-0.312-3.713,0-6.719,3.009-6.719,6.718,0,3.713,3.006,5.125,6.719,5.125h43.188c6.364-0.002,11.531-5.166,11.531-11.531,0-6.364-5.167-11.5-11.531-11.5-1.438,0-2.799,0.271-4.063,0.75-1.098-6.956-7.051-12.281-14.312-12.281zm-17.094,38.343l-5.562,15.25,1.187,0.438,5.719-15.688h-1.344zm6.344,0l-5.563,15.25,1.188,0.438,5.719-15.688h-1.344zm6.344,0l-5.563,15.25,1.187,0.438,5.719-15.688h-1.343zm6.343,0l-5.562,15.25,1.187,0.438,5.719-15.688h-1.344zm6.344,0l-5.563,15.25,1.188,0.438,5.719-15.688h-1.344zm6.344,0l-5.563,15.25,1.188,0.438,5.718-15.688h-1.343z"/>
<path id="ovc" d="m81.245,40.626c-2.34,0-4.558,0.484-6.615,1.264-1.788-11.321-11.508-20.013-23.326-20.013-13.095,0-23.702,10.608-23.702,23.696,0,0.296,0.081,0.571,0.094,0.867-0.296-0.02-0.578-0.087-0.874-0.087-7.045,0-12.759,5.714-12.759,12.759,0,0.087,0.027,0.168,0.027,0.255-1.008-0.302-2.05-0.518-3.153-0.518-6.043,0-10.937,4.901-10.937,10.938,0,6.043,4.894,8.335,10.937,8.335h70.308c10.358,0,18.755-8.389,18.755-18.748s-8.396-18.748-18.755-18.748z"/>
<path id="09d" d="M51.312,6.0312c-13.094,0-23.718,10.6-23.718,23.688,0,0.296,0.08,0.579,0.094,0.875-0.296-0.02-0.58-0.094-0.876-0.094-7.044,0-12.75,5.705-12.75,12.75,0,0.087,0.032,0.194,0.032,0.281-1.008-0.302-2.054-0.531-3.156-0.531-6.0435,0-10.938,4.9-10.938,10.938,0,6.042,4.8945,8.343,10.938,8.343h34.374,18.719,17.219c10.358,0,18.75-8.391,18.75-18.75s-8.391-18.75-18.75-18.75c-2.34,0-4.568,0.47-6.625,1.25-1.788-11.321-11.495-20-23.313-20zm-27.843,62.438l-9.031,24.781,1.937,0.719,9.313-25.5h-2.219zm10.343,0l-9.031,24.781,1.938,0.719,9.281-25.5h-2.188zm10.313,0l-9.031,24.781,1.937,0.719,9.281-25.5h-2.187zm10.344,0l-9.031,24.781,1.937,0.719,9.281-25.5h-2.187zm10.312,0l-9.031,24.781,1.938,0.719,9.281-25.5h-2.188zm10.313,0l-9,24.781,1.937,0.719,9.281-25.5h-2.218z"/>
<path id="09n" d="M51.312,6.0312c-13.094,0-23.718,10.6-23.718,23.688,0,0.296,0.08,0.579,0.094,0.875-0.296-0.02-0.58-0.094-0.876-0.094-7.044,0-12.75,5.705-12.75,12.75,0,0.087,0.032,0.194,0.032,0.281-1.008-0.302-2.054-0.531-3.156-0.531-6.0435,0-10.938,4.9-10.938,10.938,0,6.042,4.8945,8.343,10.938,8.343h34.374,18.719,17.219c10.358,0,18.75-8.391,18.75-18.75s-8.391-18.75-18.75-18.75c-2.34,0-4.568,0.47-6.625,1.25-1.788-11.321-11.495-20-23.313-20zm-27.843,62.438l-9.031,24.781,1.937,0.719,9.313-25.5h-2.219zm10.343,0l-9.031,24.781,1.938,0.719,9.281-25.5h-2.188zm10.313,0l-9.031,24.781,1.937,0.719,9.281-25.5h-2.187zm10.344,0l-9.031,24.781,1.937,0.719,9.281-25.5h-2.187zm10.312,0l-9.031,24.781,1.938,0.719,9.281-25.5h-2.188zm10.313,0l-9,24.781,1.937,0.719,9.281-25.5h-2.218z"/>
<path id="rasn" d="M25.5,2l-2.25,1.4688v7.0312l-3.938-2.1875-2,1.1563v2.4692l5.844,3.312v4.625l-4.344-2.313v4.782l-4.124-2.375v-6.781l-2.25-1.313-1.876,1.25v4.531l-6.1558-3.531-2.4062,1.219v2.812l6.25,3.406-3.9062,2.188v2.562l2.1562,1.094,5.781-3.406,4.031,2.312-4,2.5,4.126,2.344,0.093,0.094-4.031,2.312-5.7812-3.406-2.3126,1.25v2.563l4.0626,2.031-6.4688,3.531v2.813l2.625,1.094,6.156-3.469v4.469l1.875,1.25,2.219-1.376v-6.656l4.031-2.344v4.907l4.25-2.719v4.625l-5.844,3.344v2.469l2,1.156,3.938-2.219v7.063l2.25,1.437,2.281-1.437v-7.063l3.938,2.219,2-1v-2.625l-5.844-3.344v-4.625l4.125,2.531v-4.625l4.344,2.438v6.687l2.031,1.157,2.094-1.157v-4.406l5.843,3.313,2.532-1.126v-2.781l-5.938-3.531,3.719-2.094v-2.406l-1.906-1.344-5.969,3.313-4.219-2.188,4.094-2.375-3.969-2.468,4.094-2.626,5.969,3.532,2-1.125v-2.5l-3.875-2.188,6.187-3.5v-2.625l-2.219-1.375-6.343,3.438v-4.657l-2.157-0.937-2.031,0.937v7.282l-4.281,2.312v-5.031l-4.125,2.5v-4.625l6.063-3.438v-2.187l-2.063-1.375-4.094,2.25v-7.0312l-2.281-1.4688zm68.438,1.9375l-90,90,2.125,2.124,90-90-2.124-2.125zm-70.282,21.594h3.938l1.906,3.313-1.812,3.125h-3.938l-2.125-3.125,2.031-3.313zm44.438,16.438c-8.046,0-14.563,6.521-14.563,14.562,0,0.182,0.024,0.35,0.031,0.531-0.181-0.012-0.349-0.062-0.531-0.062-4.328,0-7.843,3.515-7.843,7.844,0,0.053,0.031,0.103,0.031,0.156-0.62-0.186-1.26-0.312-1.938-0.312-3.713,0-6.719,3.009-6.719,6.718,0,3.713,3.006,5.125,6.719,5.125h43.188c6.364-0.002,11.531-5.166,11.531-11.531,0-6.364-5.167-11.5-11.531-11.5-1.438,0-2.799,0.271-4.063,0.75-1.098-6.956-7.051-12.281-14.312-12.281zm-17.094,38.343l-5.562,15.25,1.187,0.438,5.719-15.688h-1.344zm6.344,0l-5.563,15.25,1.188,0.438,5.719-15.688h-1.344zm6.344,0l-5.563,15.25,1.187,0.438,5.719-15.688h-1.343zm6.343,0l-5.562,15.25,1.187,0.438,5.719-15.688h-1.344zm6.344,0l-5.563,15.25,1.188,0.438,5.719-15.688h-1.344zm6.344,0l-5.563,15.25,1.188,0.438,5.718-15.688h-1.343z"/>
<path id="03d" d="M33.469,15v11.938h3.125v-11.938h-3.125zm-13.813,3.406l-2.656,1.656,6.312,10.126,2.657-1.657-6.313-10.125zm30.938,0.313l-5.782,10.437,2.75,1.532,5.782-10.438-2.75-1.531zm-44.532,11.375l-1.5313,2.75,10.407,5.781,1.5-2.75-10.376-5.781zm28.968,0.468c-10.675,0-19.312,8.695-19.312,19.407,0,9.054,6.173,16.619,14.531,18.75-3.104,1.593-5.25,4.819-5.25,8.531,0,2.64,1.214,4.853,3.062,6.094,1.508,1.012,3.31,1.457,5.219,1.594v0.062h1.313,1.812,22.75,13.375,12.281c8.363,0,15.188-6.823,15.188-15.188,0-8.364-6.824-15.156-15.188-15.156-1.204,0-2.335,0.198-3.437,0.469-2.148-7.959-9.313-13.875-17.937-13.875-3.692,0-7.108,1.081-10,2.938-2.449-7.888-9.748-13.626-18.407-13.626zm29.219,0.376l-10.281,5.968,1.562,2.719,10.313-5.969-1.594-2.718zm-0.812,13.874c7.565,0,13.762,5.572,14.906,12.813l0.312,2.156,2.063-0.781c1.3-0.493,2.668-0.781,4.093-0.781,6.436,0,11.626,5.159,11.626,11.593,0,6.435-5.191,11.626-11.626,11.626h-12.281-13.375-24.562c-1.933,0-3.553-0.406-4.532-1.063-0.978-0.657-1.5-1.449-1.5-3.125,0-3.347,2.681-6.031,6.032-6.031,0.554,0,1.13,0.126,1.75,0.312l2.281,0.688v-2.407-0.187c0-4.067,3.246-7.313,7.313-7.313-0.059,0,0.097,0.036,0.5,0.063l2,0.125-0.094-2c-0.022-0.488-0.063-0.646-0.063-0.531,0-8.384,6.767-15.157,15.157-15.157zm-63.438,2.688v3.125h11.906v-3.125h-11.906zm13.562,11.156l-10.062,6.344,1.625,2.656,10.094-6.344-1.657-2.656zm8.438,10.282l-5.75,10.468,2.719,1.5,5.781-10.437-2.75-1.531z"/>
<path id="03n" d="M33.469,15v11.938h3.125v-11.938h-3.125zm-13.813,3.406l-2.656,1.656,6.312,10.126,2.657-1.657-6.313-10.125zm30.938,0.313l-5.782,10.437,2.75,1.532,5.782-10.438-2.75-1.531zm-44.532,11.375l-1.5313,2.75,10.407,5.781,1.5-2.75-10.376-5.781zm28.968,0.468c-10.675,0-19.312,8.695-19.312,19.407,0,9.054,6.173,16.619,14.531,18.75-3.104,1.593-5.25,4.819-5.25,8.531,0,2.64,1.214,4.853,3.062,6.094,1.508,1.012,3.31,1.457,5.219,1.594v0.062h1.313,1.812,22.75,13.375,12.281c8.363,0,15.188-6.823,15.188-15.188,0-8.364-6.824-15.156-15.188-15.156-1.204,0-2.335,0.198-3.437,0.469-2.148-7.959-9.313-13.875-17.937-13.875-3.692,0-7.108,1.081-10,2.938-2.449-7.888-9.748-13.626-18.407-13.626zm29.219,0.376l-10.281,5.968,1.562,2.719,10.313-5.969-1.594-2.718zm-0.812,13.874c7.565,0,13.762,5.572,14.906,12.813l0.312,2.156,2.063-0.781c1.3-0.493,2.668-0.781,4.093-0.781,6.436,0,11.626,5.159,11.626,11.593,0,6.435-5.191,11.626-11.626,11.626h-12.281-13.375-24.562c-1.933,0-3.553-0.406-4.532-1.063-0.978-0.657-1.5-1.449-1.5-3.125,0-3.347,2.681-6.031,6.032-6.031,0.554,0,1.13,0.126,1.75,0.312l2.281,0.688v-2.407-0.187c0-4.067,3.246-7.313,7.313-7.313-0.059,0,0.097,0.036,0.5,0.063l2,0.125-0.094-2c-0.022-0.488-0.063-0.646-0.063-0.531,0-8.384,6.767-15.157,15.157-15.157zm-63.438,2.688v3.125h11.906v-3.125h-11.906zm13.562,11.156l-10.062,6.344,1.625,2.656,10.094-6.344-1.657-2.656zm8.438,10.282l-5.75,10.468,2.719,1.5,5.781-10.437-2.75-1.531z"/>
<path id="sctfg" d="M33.125,21.844c-2.855,0-5.477,0.915-7.625,2.468h15.25c-2.137-1.553-4.777-2.468-7.625-2.468zm-10.063,4.75c-0.625,0.757-1.182,1.582-1.624,2.468h23.312c-0.444-0.889-0.969-1.709-1.594-2.468h-20.094zm-2.5,4.75c-0.225,0.799-0.368,1.615-0.437,2.468h35.094c-1.615-1.044-3.527-1.656-5.594-1.656-1.289,0-2.523,0.258-3.656,0.688-0.083-0.522-0.202-1.001-0.344-1.5h-25.063zm-4.093,4.75c-1.125,0.571-2.075,1.411-2.75,2.468h45.469c-0.368-0.895-0.846-1.72-1.438-2.468h-41.281zm-3.688,4.75c-0.106,0.484-0.156,0.984-0.156,1.5v0.156c-0.555-0.166-1.112-0.312-1.719-0.312-1.3016,0-2.5151,0.423-3.4998,1.124h52.532c0.021-0.274,0.031-0.532,0.031-0.812,0-0.565-0.069-1.116-0.157-1.656h-47.031zm-7.3122,4.75c-0.3667,0.752-0.5714,1.581-0.5938,2.468h53.437c0.492-0.762,0.879-1.585,1.157-2.468h-54zm-0.125,4.75c0.9142,1.759,3.0657,2.468,5.5622,2.468h38.719c2.563,0,4.913-0.925,6.719-2.468h-51zm67.718,2.344c-2.347,0-4.514,0.754-6.281,2.031h12.563c-1.757-1.277-3.939-2.031-6.282-2.031zm-8.281,3.906c-0.514,0.623-0.948,1.302-1.312,2.031h19.156c-0.365-0.731-0.798-1.407-1.313-2.031h-16.531zm-2.031,3.906c-0.186,0.657-0.318,1.329-0.375,2.031h28.875c-1.328-0.859-2.925-1.343-4.625-1.343-1.06,0-2.068,0.209-3,0.562-0.068-0.429-0.165-0.839-0.281-1.25h-20.594zm-3.375,3.906c-0.924,0.47-1.695,1.162-2.25,2.032h37.375c-0.303-0.737-0.701-1.416-1.188-2.032h-33.937zm-3.031,3.906c-0.087,0.399-0.125,0.827-0.125,1.25v0.126c-0.457-0.137-0.939-0.25-1.438-0.25-1.07,0-2.065,0.329-2.875,0.906h43.188c0.017-0.226,0.031-0.426,0.031-0.656,0-0.465-0.053-0.932-0.125-1.376h-38.656zm-6,3.907c-0.302,0.618-0.482,1.301-0.5,2.031h43.937c0.405-0.627,0.709-1.305,0.938-2.031h-44.375zm-0.125,3.906c0.752,1.447,2.509,2.031,4.562,2.031h31.844c2.107,0,4.047-0.762,5.531-2.031h-41.937z"/>
<path id="scttsra" d="M73.906,0v8.5312h2.219v-8.5312h-2.219zm-9.875,2.4375l-1.875,1.1875,4.5,7.219,1.906-1.1878-4.531-7.2187zm22.125,0.2187l-4.125,7.4378,1.938,1.094,4.125-7.438-1.938-1.0938zm-31.844,8.1248l-1.062,1.969,7.406,4.125,1.094-1.969-7.438-4.125zm20.719,0.344c-7.625,0-13.812,6.193-13.812,13.844s6.186,13.845,13.812,13.843c7.619,0,13.781-6.192,13.781-13.843,0-7.65-6.162-13.844-13.781-13.844zm20.875,0.25l-7.375,4.281,1.125,1.938,7.375-4.25-1.125-1.969zm-45.906,11.844v2.25h8.5v-2.25h-8.5zm41.5,0.125v2.25h8.5v-2.25h-8.5zm-31.812,7.844l-7.188,4.531,1.156,1.875,7.219-4.5-1.187-1.906zm30.25,0.468l-1.063,1.969,7.406,4.156,1.094-1.969-7.437-4.156zm-54.032,3.344c-9.166,0-16.594,7.432-16.594,16.594,0,0.207,0.054,0.386,0.063,0.594-0.207-0.014-0.387-0.032-0.594-0.032-4.931,0-8.9372,3.975-8.9372,8.906,0,0.061,0.0312,0.127,0.0312,0.188-0.7072-0.211-1.4466-0.375-2.2188-0.375-4.23,0-7.6562,3.43-7.6562,7.656,0,4.23,3.4262,5.844,7.6562,5.844h49.219c7.251-0.001,13.125-5.874,13.125-13.125,0-7.252-5.874-13.125-13.125-13.125-1.638,0-3.185,0.36-4.625,0.906-1.252-7.924-8.071-14.031-16.344-14.031zm48.375,3.469l-1.906,1.125,4.25,7.375,1.906-1.094-4.25-7.406zm-18.562,0.062l-4.125,7.469,1.968,1.094,4.126-7.469-1.969-1.094zm8.062,2.938v8.531h2.219v-8.531h-2.219zm-41.062,34.593l-8.375,14.376h5.968l-4.781,9.562,14.375-14.375h-7.187l5.969-9.563h-5.969zm-16.281,2.657l-6.313,17.343,1.344,0.5,6.5-17.843h-1.531zm7.218,0l-6.312,17.343,1.344,0.5,6.5-17.843h-1.532zm21.688,0l-6.313,17.343,1.344,0.5,6.5-17.843h-1.531zm7.218,0l-6.312,17.343,1.375,0.5,6.5-17.843h-1.563z"/>
<path id="01d" d="M47.812,0v17.062h4.469v-17.062h-4.469zm-19.718,4.875l-3.782,2.375,9,14.438,3.782-2.344-9-14.469zm44.187,0.4375l-8.25,14.906,3.938,2.187,8.219-14.906-3.907-2.1875zm-63.625,16.25l-2.1874,3.938,14.843,8.25,2.188-3.906-14.844-8.282zm41.406,0.657c-15.25,0-27.624,12.417-27.624,27.719,0,15.3,12.374,27.721,27.624,27.718,15.24,0,27.594-12.416,27.594-27.718s-12.356-27.719-27.594-27.719zm41.75,0.531l-14.718,8.531,2.218,3.907,14.719-8.532-2.219-3.906zm-91.812,23.688v4.468h17v-4.468h-17zm83,0.25v4.5h17v-4.5h-17zm-63.594,15.687l-14.406,9.031,2.3438,3.813,14.406-9.063-2.344-3.781zm60.5,0.969l-2.187,3.906,14.875,8.281,2.187-3.937-14.875-8.25zm-11.312,13.625l-3.875,2.219,8.5,14.781,3.875-2.25-8.5-14.75zm-37.156,0.093l-8.25,14.938,3.906,2.156,8.25-14.937-3.906-2.157zm16.093,5.876v17.062h4.469v-17.062h-4.469z"/>
<path id="01n" d="M47.812,0v17.062h4.469v-17.062h-4.469zm-19.718,4.875l-3.782,2.375,9,14.438,3.782-2.344-9-14.469zm44.187,0.4375l-8.25,14.906,3.938,2.187,8.219-14.906-3.907-2.1875zm-63.625,16.25l-2.1874,3.938,14.843,8.25,2.188-3.906-14.844-8.282zm41.406,0.657c-15.25,0-27.624,12.417-27.624,27.719,0,15.3,12.374,27.721,27.624,27.718,15.24,0,27.594-12.416,27.594-27.718s-12.356-27.719-27.594-27.719zm41.75,0.531l-14.718,8.531,2.218,3.907,14.719-8.532-2.219-3.906zm-91.812,23.688v4.468h17v-4.468h-17zm83,0.25v4.5h17v-4.5h-17zm-63.594,15.687l-14.406,9.031,2.3438,3.813,14.406-9.063-2.344-3.781zm60.5,0.969l-2.187,3.906,14.875,8.281,2.187-3.937-14.875-8.25zm-11.312,13.625l-3.875,2.219,8.5,14.781,3.875-2.25-8.5-14.75zm-37.156,0.093l-8.25,14.938,3.906,2.156,8.25-14.937-3.906-2.157zm16.093,5.876v17.062h4.469v-17.062h-4.469z"/>
<path id="13d" d="m42.732,50.287,3.955,5.841,7.365,0,3.398-5.841-3.58-6.22-7.379,0zm3.033,46.974,0-13.207-7.379,4.15-3.759-2.152,0-4.653,10.943-6.22,0-8.68-7.939,5.102,0-9.196-7.589,4.374,0,12.468-4.151,2.572-3.508-2.321,0-8.356-11.518,6.498-4.919-2.07,0-5.27,12.089-6.609-7.561-3.801,0-4.822,4.291-2.349,10.845,6.386,7.533-4.346-0.182-0.139-7.701-4.417,7.477-4.64-7.505-4.346-10.844,6.372-4.068-2.026,0-4.808,7.339-4.123-11.713-6.36,0-5.269,4.5-2.319,11.544,6.666,0-8.497,3.48-2.348,4.264,2.46-0.028,12.718,7.756,4.43-0.027-8.986,8.134,4.375,0-8.68-10.943-6.233,0-4.612,3.759-2.18,7.379,4.151,0-13.18,4.222-2.768,4.261,2.768,0,13.18,7.646-4.235,3.845,2.544,0,4.151-11.322,6.414,0,8.68,7.744-4.724,0,9.448,7.979-4.348,0-13.598,3.844-1.789,4.038,1.789,0,8.694,11.879-6.416,4.153,2.53,0,4.919-11.601,6.597,7.254,4.066,0,4.697-3.76,2.083-11.138-6.583-7.702,4.892,7.449,4.642-7.673,4.416,7.926,4.15,11.138-6.221,3.578,2.53,0,4.487-6.988,3.927,11.126,6.61,0,5.188-4.71,2.152-10.931-6.221,0,8.232-3.927,2.194-3.843-2.194,0-12.496-8.092-4.611,0,8.68-7.744-4.725,0,8.68,10.944,6.22,0,4.92-3.776,1.886-7.337-4.15,0,13.207-4.26,2.738z"/>
<path id="13n" d="m42.732,50.287,3.955,5.841,7.365,0,3.398-5.841-3.58-6.22-7.379,0zm3.033,46.974,0-13.207-7.379,4.15-3.759-2.152,0-4.653,10.943-6.22,0-8.68-7.939,5.102,0-9.196-7.589,4.374,0,12.468-4.151,2.572-3.508-2.321,0-8.356-11.518,6.498-4.919-2.07,0-5.27,12.089-6.609-7.561-3.801,0-4.822,4.291-2.349,10.845,6.386,7.533-4.346-0.182-0.139-7.701-4.417,7.477-4.64-7.505-4.346-10.844,6.372-4.068-2.026,0-4.808,7.339-4.123-11.713-6.36,0-5.269,4.5-2.319,11.544,6.666,0-8.497,3.48-2.348,4.264,2.46-0.028,12.718,7.756,4.43-0.027-8.986,8.134,4.375,0-8.68-10.943-6.233,0-4.612,3.759-2.18,7.379,4.151,0-13.18,4.222-2.768,4.261,2.768,0,13.18,7.646-4.235,3.845,2.544,0,4.151-11.322,6.414,0,8.68,7.744-4.724,0,9.448,7.979-4.348,0-13.598,3.844-1.789,4.038,1.789,0,8.694,11.879-6.416,4.153,2.53,0,4.919-11.601,6.597,7.254,4.066,0,4.697-3.76,2.083-11.138-6.583-7.702,4.892,7.449,4.642-7.673,4.416,7.926,4.15,11.138-6.221,3.578,2.53,0,4.487-6.988,3.927,11.126,6.61,0,5.188-4.71,2.152-10.931-6.221,0,8.232-3.927,2.194-3.843-2.194,0-12.496-8.092-4.611,0,8.68-7.744-4.725,0,8.68,10.944,6.22,0,4.92-3.776,1.886-7.337-4.15,0,13.207-4.26,2.738z"/>
<path id="11d" d="M51.312,3.5625c-13.094,0-23.718,10.63-23.718,23.718,0,0.296,0.08,0.548,0.094,0.844-0.296-0.02-0.58-0.063-0.876-0.063-7.044,0-12.75,5.706-12.75,12.75,0,0.088,0.032,0.164,0.032,0.25-1.008-0.302-2.054-0.5-3.156-0.5-6.0435,0-10.938,4.901-10.938,10.938,0,6.043,4.8945,8.312,10.938,8.312h70.312c10.358,0,18.75-8.39,18.75-18.75,0-10.358-8.391-18.75-18.75-18.75-2.34,0-4.568,0.502-6.625,1.282-1.788-11.321-11.495-20.032-23.313-20.032zm-4.593,58.656l-11.969,20.531h8.562l-6.843,13.688,20.531-20.532h-10.281l8.562-13.687h-8.562zm-23.25,3.781l-9.031,24.812,1.937,0.719,9.313-25.531h-2.219zm10.343,0l-9.031,24.812,1.938,0.719,9.281-25.531h-2.188zm30.969,0l-9.031,24.812,1.938,0.719,9.281-25.531h-2.188zm10.313,0l-9,24.812,1.937,0.719,9.281-25.531h-2.218z"/>
<path id="11n" d="M51.312,3.5625c-13.094,0-23.718,10.63-23.718,23.718,0,0.296,0.08,0.548,0.094,0.844-0.296-0.02-0.58-0.063-0.876-0.063-7.044,0-12.75,5.706-12.75,12.75,0,0.088,0.032,0.164,0.032,0.25-1.008-0.302-2.054-0.5-3.156-0.5-6.0435,0-10.938,4.901-10.938,10.938,0,6.043,4.8945,8.312,10.938,8.312h70.312c10.358,0,18.75-8.39,18.75-18.75,0-10.358-8.391-18.75-18.75-18.75-2.34,0-4.568,0.502-6.625,1.282-1.788-11.321-11.495-20.032-23.313-20.032zm-4.593,58.656l-11.969,20.531h8.562l-6.843,13.688,20.531-20.532h-10.281l8.562-13.687h-8.562zm-23.25,3.781l-9.031,24.812,1.937,0.719,9.313-25.531h-2.219zm10.343,0l-9.031,24.812,1.938,0.719,9.281-25.531h-2.188zm30.969,0l-9.031,24.812,1.938,0.719,9.281-25.531h-2.188zm10.313,0l-9,24.812,1.937,0.719,9.281-25.531h-2.218z"/>
<path id="w_ind" d="M62.781,0.0062768c-1.621,0.18889-7.737,6.4392-19.093,25.311,3.0187,0.032,5.663,1.6919,7.0938,4.1247,11.41-20.557,13.346-28.772,12.25-29.404-0.0685-0.039435-0.14194-0.043841-0.25-0.031248zm-19.187,29.467c-2.2942,0-4.1562,1.8647-4.1562,4.156s1.862,4.156,4.1562,4.156,4.1562-1.8647,4.1562-4.156-1.862-4.156-4.1562-4.156zm-7.2188,0.0625c-23.477,0.41497-31.531,2.8316-31.531,4.0935,0,1.2609,8.0532,3.6795,31.531,4.0935-0.68785-1.2069-1.0938-2.6066-1.0938-4.0935,0-1.4859,0.40594-2.8856,1.0938-4.0935zm14.406,8.2495c-1.4238,2.4358-4.0448,4.0887-7.0625,4.1247,12.105,20.107,18.216,25.878,19.312,25.248,1.0943-0.63196-0.84705-8.8283-12.25-29.373zm-50.468,2.062c-0.063218-0.0073-0.11601,0.0082-0.15625,0.03125-0.6438,0.373,0.50625,5.156,7.0312,16.999,0.9162-1.38,2.4383-2.304,4.1875-2.438-6.5661-10.832-10.114-14.483-11.062-14.592zm65.062,0c-0.06321-0.0073-0.11601,0.0082-0.15625,0.03125-0.643,0.37298,0.50625,5.1567,7.0312,16.999,0.9172-1.3799,2.4393-2.3034,4.1875-2.4373-6.566-10.833-10.113-14.484-11.061-14.593zm-25.938,3.0311,0,57.121,8.3125,0,0-43.935c-2.379-3.518-5.134-7.856-8.31-13.186zm-27.655,14.28c-1.5295,0-2.75,1.2223-2.75,2.7498s1.2205,2.7811,2.75,2.7811,2.7812-1.2536,2.7812-2.7811-1.2518-2.7498-2.7812-2.7498zm65.094,0c-1.5295,0-2.7812,1.2223-2.7812,2.7498s1.2518,2.7811,2.7812,2.7811c1.5295,0,2.7812-1.2536,2.7812-2.7811s-1.2518-2.7498-2.7812-2.7498zm-60.125,0.344c0.35844,0.73095,0.59375,1.5372,0.59375,2.4061,0,0.87594-0.2293,1.7014-0.59375,2.4373,13.471-0.28298,18.156-1.6671,18.156-2.4061,0-0.74195-4.6902-2.1544-18.156-2.4373zm65.094,0c0.35744,0.73095,0.5625,1.5372,0.5625,2.4061,0,0.87594-0.20306,1.7014-0.5625,2.4373,13.471-0.283,18.156-1.667,18.156-2.406,0-0.742-4.69-2.154-18.156-2.437zm-74.656,5.468c-6.523,11.842-7.675,16.627-7.0312,16.999,0.644,0.371,4.2152-3.01,11.219-14.562-1.7502-0.135-3.2694-1.056-4.1875-2.437zm65.062,0c-6.524,11.842-7.675,16.623-7.031,16.999,0.643,0.37,4.216-3.007,11.219-14.562-1.752-0.135-3.27-1.056-4.188-2.437zm-57.688,2.5311c-2.15,3.6138-3.9764,6.4613-5.5312,8.7182l-0.0308,25.78h5.5312l0.03125-34.498zm65.094,0c-2.1496,3.6137-4.0086,6.4613-5.5625,8.7182v25.78h5.5312l0.03125-34.498z"/>
</defs>

<g transform="translate(80.055 130.166) scale(7.05)">
<use xlink:href="#ICON_ONE"/>
</g>

<g transform=" translate(34.167 470.725) scale(4.2)">
<use xlink:href="#ICON_TWO"/>
</g>
<g transform=" translate(230 470.725) scale(4.2)">
<use xlink:href="#ICON_THREE"/>
</g>
<g transform=" translate(435.833 470.725) scale(4.2)">
<use xlink:href="#ICON_FOUR"/>
</g>
<g transform="translate(5.055 202.166) scale(2.05)">
<use xlink:href="#ICON_FIVE"/>
</g>
<g font-family="DejaVu Sans">
<textarea x="50" y="50" width="600"
    font-family="System-Regular" fill="black" font-size="24">Lorem ipsum
    dolor sit amet, consectetur adipiscing elit. Hoc Hieronymus summum bonum esse
    dixit. Cui Tubuli nomen odio non est? Teneo, inquit, finem illi videri nihil
    dolere. Nec vero sum nescius esse utilitatem in historia, non modo voluptatem.
    Idem iste, inquam.</textarea>
<text style="text-anchor:middle;" font-size="50px" y="42.256058" x="300.039063">DAY_ONE:</text>
<text style="text-anchor:middle;" font-size="20px" y="82.256058" x="300.039063">D0_DESCRIPTION:</text>
<text style="text-anchor:middle;" font-size="20px" y="112.256058" x="300.039063">D1_DESCRIPTION:</text>
<text style="text-anchor:middle;" font-size="35px" y="121.70689" x="446.26932"> </text>
<text style="text-anchor:end;" font-size="80px" y="209.20592" x="546.72095">HIGH_ONE</text>
<text style="text-anchor:start;" font-size="35px" y="192.48717" x="5.30981">PROBAB:</text>
<text style="text-anchor:start;" font-size="35px" y="332.48717" x="5.30981">ACCUM:</text>
<text style="text-anchor:start;" font-size="25px" y="282.48717" x="5.30981">xxms</text>
<text style="text-anchor:end;" font-size="25px" y="152.48717" x="441.30981">Max:</text>
<text style="text-anchor:end;" font-size="30px" y="182.48717" x="441.30981">HIGH_TIME:</text>
<text style="text-anchor:middle;" font-size="50px" y="162.48717" x="551.30981"></text>
<text style="text-anchor:end;" font-size="25px" y="275.48717" x="441.30981">Min:</text>
<text style="text-anchor:end;" font-size="30px" y="305.48717" x="441.30981">LOW_TIME:</text>
<text style="text-anchor:middle;" font-size="35px" y="275.13895" x="440.80057"></text>
<text style="text-anchor:end;" font-size="80px" y="339.8533" x="546.23267">LOW_ONE</text>
<text style="text-anchor:middle;" font-size="50px" y="293.13455" x="551.30981"></text>

<text style="text-anchor:middle;" font-size="26px" y="465.16922" x="102.92969">DAY_TWO:</text>
<text style="text-anchor:start;" font-size="15px" y="380.16922" x="20.92969">ATOM:</text>
<text style="text-anchor:start;" font-size="15px" y="405.16922" x="20.92969">ATOM1:</text>
<text style="text-anchor:start;" font-size="15px" y="430.16922" x="20.92969">ATOM2:</text>
<text style="text-anchor:middle;" font-size="20px" y="635.68347" x="74.958336">Dzie:</text>
<text style="text-anchor:end;" font-size="58px" y="686.3255" x="116.05887">HIGH_TWO</text>
<text style="text-anchor:middle;" font-size="37px" y="670.86145" x="134.01662">C</text>
<text style="text-anchor:middle;" font-size="20px" y="724.48578" x="71.906197">Noc:</text>
<text style="text-anchor:end;" font-size="58px" y="773.51617" x="116.00232">LOW_TWO</text>
<text style="text-anchor:middle;" font-size="37px" y="758.05206" x="134.01663">C</text>

<text style="text-anchor:middle;" font-size="26px" y="466.15359" x="300.3125">DAY_THREE:</text>
<text style="text-anchor:middle;" font-size="20px" y="635.68347" x="273.95834">Dzie:</text>
<text style="text-anchor:end;" font-size="58px" y="686.3255" x="314.15454">HIGH_THREE</text>
<text style="text-anchor:middle;" font-size="37px" y="670.86145" x="333.01663">C</text>
<text style="text-anchor:middle;" font-size="20px" y="724.48578" x="270.90619">Noc:</text>
<text style="text-anchor:end;" font-size="58px" y="773.51617" x="314.08383">LOW_THREE</text>
<text style="text-anchor:middle;" font-size="37px" y="758.05206" x="333.0166">C</text>

<text style="text-anchor:middle;" font-size="26px" y="466.15359" x="499.82813">DAY_FOUR:</text>
<text style="text-anchor:middle;" font-size="20px" y="635.68347" x="472.95834">Dzie:</text>
<text style="text-anchor:end;" font-size="58px" y="686.3255" x="513.30994">HIGH_FOUR</text>
<text style="text-anchor:middle;" font-size="37px" y="670.86145" x="532.0166">C</text>
<text style="text-anchor:middle;" font-size="20px" y="724.48578" x="469.90619">Noc:</text>
<text style="text-anchor:end;" font-size="58px" y="773.51617" x="513.73383">LOW_FOUR</text>
<text style="text-anchor:middle;" font-size="37px" y="758.05206" x="532.0166">C</text>
<text style="text-anchor:end;" font-size="10px" y="795.48578" x="590.90619">GEN_TIME</text>

</g>

<path d="m199,457.35,0,321.5,3,0,0-271.5-3,0z"/>
<path d="m398,457.35,0,321.5,3,0,0-271.5-3,0z"/>

</svg>
